export default [
  [
    {
      "time": "0i",
      "midiNote": 76,
      "noteName": "E5",
      "velocity": 0.5039370078740157,
      "duration": "32i"
    },
    {
      "time": "48i",
      "midiNote": 76,
      "noteName": "E5",
      "velocity": 0.5039370078740157,
      "duration": "32i"
    },
    {
      "time": "144i",
      "midiNote": 76,
      "noteName": "E5",
      "velocity": 0.5039370078740157,
      "duration": "32i"
    },
    {
      "time": "240i",
      "midiNote": 72,
      "noteName": "C5",
      "velocity": 0.5039370078740157,
      "duration": "32i"
    },
    {
      "time": "288i",
      "midiNote": 76,
      "noteName": "E5",
      "velocity": 0.5039370078740157,
      "duration": "32i"
    },
    {
      "time": "384i",
      "midiNote": 79,
      "noteName": "G5",
      "velocity": 0.5039370078740157,
      "duration": "32i"
    },
    {
      "time": "768i",
      "midiNote": 72,
      "noteName": "C5",
      "velocity": 0.5039370078740157,
      "duration": "32i"
    },
    {
      "time": "912i",
      "midiNote": 67,
      "noteName": "G4",
      "velocity": 0.5039370078740157,
      "duration": "32i"
    },
    {
      "time": "1056i",
      "midiNote": 64,
      "noteName": "E4",
      "velocity": 0.5039370078740157,
      "duration": "32i"
    },
    {
      "time": "1200i",
      "midiNote": 69,
      "noteName": "A4",
      "velocity": 0.5039370078740157,
      "duration": "32i"
    },
    {
      "time": "1296i",
      "midiNote": 71,
      "noteName": "B4",
      "velocity": 0.5039370078740157,
      "duration": "32i"
    },
    {
      "time": "1392i",
      "midiNote": 70,
      "noteName": "A#4",
      "velocity": 0.5039370078740157,
      "duration": "32i"
    },
    {
      "time": "1440i",
      "midiNote": 69,
      "noteName": "A4",
      "velocity": 0.5039370078740157,
      "duration": "32i"
    },
    {
      "time": "1536i",
      "midiNote": 67,
      "noteName": "G4",
      "velocity": 0.5039370078740157,
      "duration": "32i"
    },
    {
      "time": "1600i",
      "midiNote": 76,
      "noteName": "E5",
      "velocity": 0.5039370078740157,
      "duration": "32i"
    },
    {
      "time": "1664i",
      "midiNote": 79,
      "noteName": "G5",
      "velocity": 0.5039370078740157,
      "duration": "32i"
    },
    {
      "time": "1728i",
      "midiNote": 81,
      "noteName": "A5",
      "velocity": 0.5039370078740157,
      "duration": "32i"
    },
    {
      "time": "1824i",
      "midiNote": 77,
      "noteName": "F5",
      "velocity": 0.5039370078740157,
      "duration": "32i"
    },
    {
      "time": "1872i",
      "midiNote": 79,
      "noteName": "G5",
      "velocity": 0.5039370078740157,
      "duration": "32i"
    },
    {
      "time": "1968i",
      "midiNote": 76,
      "noteName": "E5",
      "velocity": 0.5039370078740157,
      "duration": "32i"
    },
    {
      "time": "2064i",
      "midiNote": 72,
      "noteName": "C5",
      "velocity": 0.5039370078740157,
      "duration": "32i"
    },
    {
      "time": "2112i",
      "midiNote": 74,
      "noteName": "D5",
      "velocity": 0.5039370078740157,
      "duration": "32i"
    },
    {
      "time": "2160i",
      "midiNote": 71,
      "noteName": "B4",
      "velocity": 0.5039370078740157,
      "duration": "32i"
    },
    {
      "time": "2304i",
      "midiNote": 72,
      "noteName": "C5",
      "velocity": 0.5039370078740157,
      "duration": "32i"
    },
    {
      "time": "2448i",
      "midiNote": 67,
      "noteName": "G4",
      "velocity": 0.5039370078740157,
      "duration": "32i"
    },
    {
      "time": "2592i",
      "midiNote": 64,
      "noteName": "E4",
      "velocity": 0.5039370078740157,
      "duration": "32i"
    },
    {
      "time": "2736i",
      "midiNote": 69,
      "noteName": "A4",
      "velocity": 0.5039370078740157,
      "duration": "32i"
    },
    {
      "time": "2832i",
      "midiNote": 71,
      "noteName": "B4",
      "velocity": 0.5039370078740157,
      "duration": "32i"
    },
    {
      "time": "2928i",
      "midiNote": 70,
      "noteName": "A#4",
      "velocity": 0.5039370078740157,
      "duration": "32i"
    },
    {
      "time": "2976i",
      "midiNote": 69,
      "noteName": "A4",
      "velocity": 0.5039370078740157,
      "duration": "32i"
    },
    {
      "time": "3072i",
      "midiNote": 67,
      "noteName": "G4",
      "velocity": 0.5039370078740157,
      "duration": "32i"
    },
    {
      "time": "3136i",
      "midiNote": 76,
      "noteName": "E5",
      "velocity": 0.5039370078740157,
      "duration": "32i"
    },
    {
      "time": "3200i",
      "midiNote": 79,
      "noteName": "G5",
      "velocity": 0.5039370078740157,
      "duration": "32i"
    },
    {
      "time": "3264i",
      "midiNote": 81,
      "noteName": "A5",
      "velocity": 0.5039370078740157,
      "duration": "32i"
    },
    {
      "time": "3360i",
      "midiNote": 77,
      "noteName": "F5",
      "velocity": 0.5039370078740157,
      "duration": "32i"
    },
    {
      "time": "3408i",
      "midiNote": 79,
      "noteName": "G5",
      "velocity": 0.5039370078740157,
      "duration": "32i"
    },
    {
      "time": "3504i",
      "midiNote": 76,
      "noteName": "E5",
      "velocity": 0.5039370078740157,
      "duration": "32i"
    },
    {
      "time": "3600i",
      "midiNote": 72,
      "noteName": "C5",
      "velocity": 0.5039370078740157,
      "duration": "32i"
    },
    {
      "time": "3648i",
      "midiNote": 74,
      "noteName": "D5",
      "velocity": 0.5039370078740157,
      "duration": "32i"
    },
    {
      "time": "3696i",
      "midiNote": 71,
      "noteName": "B4",
      "velocity": 0.5039370078740157,
      "duration": "32i"
    },
    {
      "time": "3936i",
      "midiNote": 79,
      "noteName": "G5",
      "velocity": 0.5039370078740157,
      "duration": "32i"
    },
    {
      "time": "3984i",
      "midiNote": 78,
      "noteName": "F#5",
      "velocity": 0.5039370078740157,
      "duration": "32i"
    },
    {
      "time": "4032i",
      "midiNote": 77,
      "noteName": "F5",
      "velocity": 0.5039370078740157,
      "duration": "32i"
    },
    {
      "time": "4080i",
      "midiNote": 75,
      "noteName": "D#5",
      "velocity": 0.5039370078740157,
      "duration": "32i"
    },
    {
      "time": "4176i",
      "midiNote": 76,
      "noteName": "E5",
      "velocity": 0.5039370078740157,
      "duration": "32i"
    },
    {
      "time": "4272i",
      "midiNote": 68,
      "noteName": "G#4",
      "velocity": 0.5039370078740157,
      "duration": "32i"
    },
    {
      "time": "4320i",
      "midiNote": 69,
      "noteName": "A4",
      "velocity": 0.5039370078740157,
      "duration": "32i"
    },
    {
      "time": "4368i",
      "midiNote": 72,
      "noteName": "C5",
      "velocity": 0.5039370078740157,
      "duration": "32i"
    },
    {
      "time": "4464i",
      "midiNote": 69,
      "noteName": "A4",
      "velocity": 0.5039370078740157,
      "duration": "32i"
    },
    {
      "time": "4512i",
      "midiNote": 72,
      "noteName": "C5",
      "velocity": 0.5039370078740157,
      "duration": "32i"
    },
    {
      "time": "4560i",
      "midiNote": 74,
      "noteName": "D5",
      "velocity": 0.5039370078740157,
      "duration": "32i"
    },
    {
      "time": "4704i",
      "midiNote": 79,
      "noteName": "G5",
      "velocity": 0.5039370078740157,
      "duration": "32i"
    },
    {
      "time": "4752i",
      "midiNote": 78,
      "noteName": "F#5",
      "velocity": 0.5039370078740157,
      "duration": "32i"
    },
    {
      "time": "4800i",
      "midiNote": 77,
      "noteName": "F5",
      "velocity": 0.5039370078740157,
      "duration": "32i"
    },
    {
      "time": "4848i",
      "midiNote": 75,
      "noteName": "D#5",
      "velocity": 0.5039370078740157,
      "duration": "32i"
    },
    {
      "time": "4944i",
      "midiNote": 76,
      "noteName": "E5",
      "velocity": 0.5039370078740157,
      "duration": "32i"
    },
    {
      "time": "5040i",
      "midiNote": 84,
      "noteName": "C6",
      "velocity": 0.5039370078740157,
      "duration": "32i"
    },
    {
      "time": "5136i",
      "midiNote": 84,
      "noteName": "C6",
      "velocity": 0.5039370078740157,
      "duration": "32i"
    },
    {
      "time": "5184i",
      "midiNote": 84,
      "noteName": "C6",
      "velocity": 0.5039370078740157,
      "duration": "32i"
    },
    {
      "time": "5472i",
      "midiNote": 79,
      "noteName": "G5",
      "velocity": 0.5039370078740157,
      "duration": "32i"
    },
    {
      "time": "5520i",
      "midiNote": 78,
      "noteName": "F#5",
      "velocity": 0.5039370078740157,
      "duration": "32i"
    },
    {
      "time": "5568i",
      "midiNote": 77,
      "noteName": "F5",
      "velocity": 0.5039370078740157,
      "duration": "32i"
    },
    {
      "time": "5616i",
      "midiNote": 75,
      "noteName": "D#5",
      "velocity": 0.5039370078740157,
      "duration": "32i"
    },
    {
      "time": "5712i",
      "midiNote": 76,
      "noteName": "E5",
      "velocity": 0.5039370078740157,
      "duration": "32i"
    },
    {
      "time": "5808i",
      "midiNote": 68,
      "noteName": "G#4",
      "velocity": 0.5039370078740157,
      "duration": "32i"
    },
    {
      "time": "5856i",
      "midiNote": 69,
      "noteName": "A4",
      "velocity": 0.5039370078740157,
      "duration": "32i"
    },
    {
      "time": "5904i",
      "midiNote": 72,
      "noteName": "C5",
      "velocity": 0.5039370078740157,
      "duration": "32i"
    },
    {
      "time": "6000i",
      "midiNote": 69,
      "noteName": "A4",
      "velocity": 0.5039370078740157,
      "duration": "32i"
    },
    {
      "time": "6048i",
      "midiNote": 72,
      "noteName": "C5",
      "velocity": 0.5039370078740157,
      "duration": "32i"
    },
    {
      "time": "6096i",
      "midiNote": 74,
      "noteName": "D5",
      "velocity": 0.5039370078740157,
      "duration": "32i"
    },
    {
      "time": "6240i",
      "midiNote": 75,
      "noteName": "D#5",
      "velocity": 0.5039370078740157,
      "duration": "32i"
    },
    {
      "time": "6384i",
      "midiNote": 74,
      "noteName": "D5",
      "velocity": 0.5039370078740157,
      "duration": "32i"
    },
    {
      "time": "6528i",
      "midiNote": 72,
      "noteName": "C5",
      "velocity": 0.5039370078740157,
      "duration": "32i"
    },
    {
      "time": "7008i",
      "midiNote": 79,
      "noteName": "G5",
      "velocity": 0.5039370078740157,
      "duration": "32i"
    },
    {
      "time": "7056i",
      "midiNote": 78,
      "noteName": "F#5",
      "velocity": 0.5039370078740157,
      "duration": "32i"
    },
    {
      "time": "7104i",
      "midiNote": 77,
      "noteName": "F5",
      "velocity": 0.5039370078740157,
      "duration": "32i"
    },
    {
      "time": "7152i",
      "midiNote": 75,
      "noteName": "D#5",
      "velocity": 0.5039370078740157,
      "duration": "32i"
    },
    {
      "time": "7248i",
      "midiNote": 76,
      "noteName": "E5",
      "velocity": 0.5039370078740157,
      "duration": "32i"
    },
    {
      "time": "7344i",
      "midiNote": 68,
      "noteName": "G#4",
      "velocity": 0.5039370078740157,
      "duration": "32i"
    },
    {
      "time": "7392i",
      "midiNote": 69,
      "noteName": "A4",
      "velocity": 0.5039370078740157,
      "duration": "32i"
    },
    {
      "time": "7440i",
      "midiNote": 72,
      "noteName": "C5",
      "velocity": 0.5039370078740157,
      "duration": "32i"
    },
    {
      "time": "7536i",
      "midiNote": 69,
      "noteName": "A4",
      "velocity": 0.5039370078740157,
      "duration": "32i"
    },
    {
      "time": "7584i",
      "midiNote": 72,
      "noteName": "C5",
      "velocity": 0.5039370078740157,
      "duration": "32i"
    },
    {
      "time": "7632i",
      "midiNote": 74,
      "noteName": "D5",
      "velocity": 0.5039370078740157,
      "duration": "32i"
    },
    {
      "time": "7776i",
      "midiNote": 79,
      "noteName": "G5",
      "velocity": 0.5039370078740157,
      "duration": "32i"
    },
    {
      "time": "7824i",
      "midiNote": 78,
      "noteName": "F#5",
      "velocity": 0.5039370078740157,
      "duration": "32i"
    },
    {
      "time": "7872i",
      "midiNote": 77,
      "noteName": "F5",
      "velocity": 0.5039370078740157,
      "duration": "32i"
    },
    {
      "time": "7920i",
      "midiNote": 75,
      "noteName": "D#5",
      "velocity": 0.5039370078740157,
      "duration": "32i"
    },
    {
      "time": "8016i",
      "midiNote": 76,
      "noteName": "E5",
      "velocity": 0.5039370078740157,
      "duration": "32i"
    },
    {
      "time": "8112i",
      "midiNote": 84,
      "noteName": "C6",
      "velocity": 0.5039370078740157,
      "duration": "32i"
    },
    {
      "time": "8208i",
      "midiNote": 84,
      "noteName": "C6",
      "velocity": 0.5039370078740157,
      "duration": "32i"
    },
    {
      "time": "8256i",
      "midiNote": 84,
      "noteName": "C6",
      "velocity": 0.5039370078740157,
      "duration": "32i"
    },
    {
      "time": "8544i",
      "midiNote": 79,
      "noteName": "G5",
      "velocity": 0.5039370078740157,
      "duration": "32i"
    },
    {
      "time": "8592i",
      "midiNote": 78,
      "noteName": "F#5",
      "velocity": 0.5039370078740157,
      "duration": "32i"
    },
    {
      "time": "8640i",
      "midiNote": 77,
      "noteName": "F5",
      "velocity": 0.5039370078740157,
      "duration": "32i"
    },
    {
      "time": "8688i",
      "midiNote": 75,
      "noteName": "D#5",
      "velocity": 0.5039370078740157,
      "duration": "32i"
    },
    {
      "time": "8784i",
      "midiNote": 76,
      "noteName": "E5",
      "velocity": 0.5039370078740157,
      "duration": "32i"
    },
    {
      "time": "8880i",
      "midiNote": 68,
      "noteName": "G#4",
      "velocity": 0.5039370078740157,
      "duration": "32i"
    },
    {
      "time": "8928i",
      "midiNote": 69,
      "noteName": "A4",
      "velocity": 0.5039370078740157,
      "duration": "32i"
    },
    {
      "time": "8976i",
      "midiNote": 72,
      "noteName": "C5",
      "velocity": 0.5039370078740157,
      "duration": "32i"
    },
    {
      "time": "9072i",
      "midiNote": 69,
      "noteName": "A4",
      "velocity": 0.5039370078740157,
      "duration": "32i"
    },
    {
      "time": "9120i",
      "midiNote": 72,
      "noteName": "C5",
      "velocity": 0.5039370078740157,
      "duration": "32i"
    },
    {
      "time": "9168i",
      "midiNote": 74,
      "noteName": "D5",
      "velocity": 0.5039370078740157,
      "duration": "32i"
    },
    {
      "time": "9312i",
      "midiNote": 75,
      "noteName": "D#5",
      "velocity": 0.5039370078740157,
      "duration": "32i"
    },
    {
      "time": "9456i",
      "midiNote": 74,
      "noteName": "D5",
      "velocity": 0.5039370078740157,
      "duration": "32i"
    },
    {
      "time": "9600i",
      "midiNote": 72,
      "noteName": "C5",
      "velocity": 0.5039370078740157,
      "duration": "32i"
    },
    {
      "time": "9984i",
      "midiNote": 72,
      "noteName": "C5",
      "velocity": 0.5039370078740157,
      "duration": "32i"
    },
    {
      "time": "10032i",
      "midiNote": 72,
      "noteName": "C5",
      "velocity": 0.5039370078740157,
      "duration": "32i"
    },
    {
      "time": "10128i",
      "midiNote": 72,
      "noteName": "C5",
      "velocity": 0.5039370078740157,
      "duration": "32i"
    },
    {
      "time": "10224i",
      "midiNote": 72,
      "noteName": "C5",
      "velocity": 0.5039370078740157,
      "duration": "32i"
    },
    {
      "time": "10272i",
      "midiNote": 74,
      "noteName": "D5",
      "velocity": 0.5039370078740157,
      "duration": "32i"
    },
    {
      "time": "10368i",
      "midiNote": 76,
      "noteName": "E5",
      "velocity": 0.5039370078740157,
      "duration": "32i"
    },
    {
      "time": "10416i",
      "midiNote": 72,
      "noteName": "C5",
      "velocity": 0.5039370078740157,
      "duration": "32i"
    },
    {
      "time": "10512i",
      "midiNote": 69,
      "noteName": "A4",
      "velocity": 0.5039370078740157,
      "duration": "32i"
    },
    {
      "time": "10560i",
      "midiNote": 67,
      "noteName": "G4",
      "velocity": 0.5039370078740157,
      "duration": "32i"
    },
    {
      "time": "10752i",
      "midiNote": 72,
      "noteName": "C5",
      "velocity": 0.5039370078740157,
      "duration": "32i"
    },
    {
      "time": "10800i",
      "midiNote": 72,
      "noteName": "C5",
      "velocity": 0.5039370078740157,
      "duration": "32i"
    },
    {
      "time": "10896i",
      "midiNote": 72,
      "noteName": "C5",
      "velocity": 0.5039370078740157,
      "duration": "32i"
    },
    {
      "time": "10992i",
      "midiNote": 72,
      "noteName": "C5",
      "velocity": 0.5039370078740157,
      "duration": "32i"
    },
    {
      "time": "11040i",
      "midiNote": 74,
      "noteName": "D5",
      "velocity": 0.5039370078740157,
      "duration": "32i"
    },
    {
      "time": "11088i",
      "midiNote": 76,
      "noteName": "E5",
      "velocity": 0.5039370078740157,
      "duration": "32i"
    },
    {
      "time": "11520i",
      "midiNote": 72,
      "noteName": "C5",
      "velocity": 0.5039370078740157,
      "duration": "32i"
    },
    {
      "time": "11568i",
      "midiNote": 72,
      "noteName": "C5",
      "velocity": 0.5039370078740157,
      "duration": "32i"
    },
    {
      "time": "11664i",
      "midiNote": 72,
      "noteName": "C5",
      "velocity": 0.5039370078740157,
      "duration": "32i"
    },
    {
      "time": "11760i",
      "midiNote": 72,
      "noteName": "C5",
      "velocity": 0.5039370078740157,
      "duration": "32i"
    },
    {
      "time": "11808i",
      "midiNote": 74,
      "noteName": "D5",
      "velocity": 0.5039370078740157,
      "duration": "32i"
    },
    {
      "time": "11904i",
      "midiNote": 76,
      "noteName": "E5",
      "velocity": 0.5039370078740157,
      "duration": "32i"
    },
    {
      "time": "11952i",
      "midiNote": 72,
      "noteName": "C5",
      "velocity": 0.5039370078740157,
      "duration": "32i"
    },
    {
      "time": "12048i",
      "midiNote": 69,
      "noteName": "A4",
      "velocity": 0.5039370078740157,
      "duration": "32i"
    },
    {
      "time": "12096i",
      "midiNote": 67,
      "noteName": "G4",
      "velocity": 0.5039370078740157,
      "duration": "32i"
    },
    {
      "time": "12288i",
      "midiNote": 76,
      "noteName": "E5",
      "velocity": 0.5039370078740157,
      "duration": "32i"
    },
    {
      "time": "12336i",
      "midiNote": 76,
      "noteName": "E5",
      "velocity": 0.5039370078740157,
      "duration": "32i"
    },
    {
      "time": "12432i",
      "midiNote": 76,
      "noteName": "E5",
      "velocity": 0.5039370078740157,
      "duration": "32i"
    },
    {
      "time": "12528i",
      "midiNote": 72,
      "noteName": "C5",
      "velocity": 0.5039370078740157,
      "duration": "32i"
    },
    {
      "time": "12576i",
      "midiNote": 76,
      "noteName": "E5",
      "velocity": 0.5039370078740157,
      "duration": "32i"
    },
    {
      "time": "12672i",
      "midiNote": 79,
      "noteName": "G5",
      "velocity": 0.5039370078740157,
      "duration": "32i"
    },
    {
      "time": "13056i",
      "midiNote": 72,
      "noteName": "C5",
      "velocity": 0.5039370078740157,
      "duration": "32i"
    },
    {
      "time": "13200i",
      "midiNote": 67,
      "noteName": "G4",
      "velocity": 0.5039370078740157,
      "duration": "32i"
    },
    {
      "time": "13344i",
      "midiNote": 64,
      "noteName": "E4",
      "velocity": 0.5039370078740157,
      "duration": "32i"
    },
    {
      "time": "13488i",
      "midiNote": 69,
      "noteName": "A4",
      "velocity": 0.5039370078740157,
      "duration": "32i"
    },
    {
      "time": "13584i",
      "midiNote": 71,
      "noteName": "B4",
      "velocity": 0.5039370078740157,
      "duration": "32i"
    },
    {
      "time": "13680i",
      "midiNote": 70,
      "noteName": "A#4",
      "velocity": 0.5039370078740157,
      "duration": "32i"
    },
    {
      "time": "13728i",
      "midiNote": 69,
      "noteName": "A4",
      "velocity": 0.5039370078740157,
      "duration": "32i"
    },
    {
      "time": "13824i",
      "midiNote": 67,
      "noteName": "G4",
      "velocity": 0.5039370078740157,
      "duration": "32i"
    },
    {
      "time": "13888i",
      "midiNote": 76,
      "noteName": "E5",
      "velocity": 0.5039370078740157,
      "duration": "32i"
    },
    {
      "time": "13952i",
      "midiNote": 79,
      "noteName": "G5",
      "velocity": 0.5039370078740157,
      "duration": "32i"
    },
    {
      "time": "14016i",
      "midiNote": 81,
      "noteName": "A5",
      "velocity": 0.5039370078740157,
      "duration": "32i"
    },
    {
      "time": "14112i",
      "midiNote": 77,
      "noteName": "F5",
      "velocity": 0.5039370078740157,
      "duration": "32i"
    },
    {
      "time": "14160i",
      "midiNote": 79,
      "noteName": "G5",
      "velocity": 0.5039370078740157,
      "duration": "32i"
    },
    {
      "time": "14256i",
      "midiNote": 76,
      "noteName": "E5",
      "velocity": 0.5039370078740157,
      "duration": "32i"
    },
    {
      "time": "14352i",
      "midiNote": 72,
      "noteName": "C5",
      "velocity": 0.5039370078740157,
      "duration": "32i"
    },
    {
      "time": "14400i",
      "midiNote": 74,
      "noteName": "D5",
      "velocity": 0.5039370078740157,
      "duration": "32i"
    },
    {
      "time": "14448i",
      "midiNote": 71,
      "noteName": "B4",
      "velocity": 0.5039370078740157,
      "duration": "32i"
    },
    {
      "time": "14592i",
      "midiNote": 72,
      "noteName": "C5",
      "velocity": 0.5039370078740157,
      "duration": "32i"
    },
    {
      "time": "14736i",
      "midiNote": 67,
      "noteName": "G4",
      "velocity": 0.5039370078740157,
      "duration": "32i"
    },
    {
      "time": "14880i",
      "midiNote": 64,
      "noteName": "E4",
      "velocity": 0.5039370078740157,
      "duration": "32i"
    },
    {
      "time": "15024i",
      "midiNote": 69,
      "noteName": "A4",
      "velocity": 0.5039370078740157,
      "duration": "32i"
    },
    {
      "time": "15120i",
      "midiNote": 71,
      "noteName": "B4",
      "velocity": 0.5039370078740157,
      "duration": "32i"
    },
    {
      "time": "15216i",
      "midiNote": 70,
      "noteName": "A#4",
      "velocity": 0.5039370078740157,
      "duration": "32i"
    },
    {
      "time": "15264i",
      "midiNote": 69,
      "noteName": "A4",
      "velocity": 0.5039370078740157,
      "duration": "32i"
    },
    {
      "time": "15360i",
      "midiNote": 67,
      "noteName": "G4",
      "velocity": 0.5039370078740157,
      "duration": "32i"
    },
    {
      "time": "15424i",
      "midiNote": 76,
      "noteName": "E5",
      "velocity": 0.5039370078740157,
      "duration": "32i"
    },
    {
      "time": "15488i",
      "midiNote": 79,
      "noteName": "G5",
      "velocity": 0.5039370078740157,
      "duration": "32i"
    },
    {
      "time": "15552i",
      "midiNote": 81,
      "noteName": "A5",
      "velocity": 0.5039370078740157,
      "duration": "32i"
    },
    {
      "time": "15648i",
      "midiNote": 77,
      "noteName": "F5",
      "velocity": 0.5039370078740157,
      "duration": "32i"
    },
    {
      "time": "15696i",
      "midiNote": 79,
      "noteName": "G5",
      "velocity": 0.5039370078740157,
      "duration": "32i"
    },
    {
      "time": "15792i",
      "midiNote": 76,
      "noteName": "E5",
      "velocity": 0.5039370078740157,
      "duration": "32i"
    },
    {
      "time": "15888i",
      "midiNote": 72,
      "noteName": "C5",
      "velocity": 0.5039370078740157,
      "duration": "32i"
    },
    {
      "time": "15936i",
      "midiNote": 74,
      "noteName": "D5",
      "velocity": 0.5039370078740157,
      "duration": "32i"
    },
    {
      "time": "15984i",
      "midiNote": 71,
      "noteName": "B4",
      "velocity": 0.5039370078740157,
      "duration": "32i"
    },
    {
      "time": "16128i",
      "midiNote": 76,
      "noteName": "E5",
      "velocity": 0.5039370078740157,
      "duration": "32i"
    },
    {
      "time": "16176i",
      "midiNote": 72,
      "noteName": "C5",
      "velocity": 0.5039370078740157,
      "duration": "32i"
    },
    {
      "time": "16272i",
      "midiNote": 67,
      "noteName": "G4",
      "velocity": 0.5039370078740157,
      "duration": "32i"
    },
    {
      "time": "16416i",
      "midiNote": 68,
      "noteName": "G#4",
      "velocity": 0.5039370078740157,
      "duration": "32i"
    },
    {
      "time": "16512i",
      "midiNote": 69,
      "noteName": "A4",
      "velocity": 0.5039370078740157,
      "duration": "32i"
    },
    {
      "time": "16560i",
      "midiNote": 77,
      "noteName": "F5",
      "velocity": 0.5039370078740157,
      "duration": "32i"
    },
    {
      "time": "16656i",
      "midiNote": 77,
      "noteName": "F5",
      "velocity": 0.5039370078740157,
      "duration": "32i"
    },
    {
      "time": "16704i",
      "midiNote": 69,
      "noteName": "A4",
      "velocity": 0.5039370078740157,
      "duration": "32i"
    },
    {
      "time": "16896i",
      "midiNote": 71,
      "noteName": "B4",
      "velocity": 0.5039370078740157,
      "duration": "32i"
    },
    {
      "time": "16960i",
      "midiNote": 81,
      "noteName": "A5",
      "velocity": 0.5039370078740157,
      "duration": "32i"
    },
    {
      "time": "17024i",
      "midiNote": 81,
      "noteName": "A5",
      "velocity": 0.5039370078740157,
      "duration": "32i"
    },
    {
      "time": "17088i",
      "midiNote": 81,
      "noteName": "A5",
      "velocity": 0.5039370078740157,
      "duration": "32i"
    },
    {
      "time": "17152i",
      "midiNote": 79,
      "noteName": "G5",
      "velocity": 0.5039370078740157,
      "duration": "32i"
    },
    {
      "time": "17216i",
      "midiNote": 77,
      "noteName": "F5",
      "velocity": 0.5039370078740157,
      "duration": "32i"
    },
    {
      "time": "17280i",
      "midiNote": 76,
      "noteName": "E5",
      "velocity": 0.5039370078740157,
      "duration": "32i"
    },
    {
      "time": "17328i",
      "midiNote": 72,
      "noteName": "C5",
      "velocity": 0.5039370078740157,
      "duration": "32i"
    },
    {
      "time": "17424i",
      "midiNote": 69,
      "noteName": "A4",
      "velocity": 0.5039370078740157,
      "duration": "32i"
    },
    {
      "time": "17472i",
      "midiNote": 67,
      "noteName": "G4",
      "velocity": 0.5039370078740157,
      "duration": "32i"
    },
    {
      "time": "17664i",
      "midiNote": 76,
      "noteName": "E5",
      "velocity": 0.5039370078740157,
      "duration": "32i"
    },
    {
      "time": "17712i",
      "midiNote": 72,
      "noteName": "C5",
      "velocity": 0.5039370078740157,
      "duration": "32i"
    },
    {
      "time": "17808i",
      "midiNote": 67,
      "noteName": "G4",
      "velocity": 0.5039370078740157,
      "duration": "32i"
    },
    {
      "time": "17952i",
      "midiNote": 68,
      "noteName": "G#4",
      "velocity": 0.5039370078740157,
      "duration": "32i"
    },
    {
      "time": "18048i",
      "midiNote": 69,
      "noteName": "A4",
      "velocity": 0.5039370078740157,
      "duration": "32i"
    },
    {
      "time": "18096i",
      "midiNote": 77,
      "noteName": "F5",
      "velocity": 0.5039370078740157,
      "duration": "32i"
    },
    {
      "time": "18192i",
      "midiNote": 77,
      "noteName": "F5",
      "velocity": 0.5039370078740157,
      "duration": "32i"
    },
    {
      "time": "18240i",
      "midiNote": 69,
      "noteName": "A4",
      "velocity": 0.5039370078740157,
      "duration": "32i"
    },
    {
      "time": "18432i",
      "midiNote": 71,
      "noteName": "B4",
      "velocity": 0.5039370078740157,
      "duration": "32i"
    },
    {
      "time": "18480i",
      "midiNote": 77,
      "noteName": "F5",
      "velocity": 0.5039370078740157,
      "duration": "32i"
    },
    {
      "time": "18576i",
      "midiNote": 77,
      "noteName": "F5",
      "velocity": 0.5039370078740157,
      "duration": "32i"
    },
    {
      "time": "18624i",
      "midiNote": 77,
      "noteName": "F5",
      "velocity": 0.5039370078740157,
      "duration": "32i"
    },
    {
      "time": "18688i",
      "midiNote": 76,
      "noteName": "E5",
      "velocity": 0.5039370078740157,
      "duration": "32i"
    },
    {
      "time": "18752i",
      "midiNote": 74,
      "noteName": "D5",
      "velocity": 0.5039370078740157,
      "duration": "32i"
    },
    {
      "time": "18816i",
      "midiNote": 72,
      "noteName": "C5",
      "velocity": 0.5039370078740157,
      "duration": "32i"
    },
    {
      "time": "19200i",
      "midiNote": 76,
      "noteName": "E5",
      "velocity": 0.5039370078740157,
      "duration": "32i"
    },
    {
      "time": "19248i",
      "midiNote": 72,
      "noteName": "C5",
      "velocity": 0.5039370078740157,
      "duration": "32i"
    },
    {
      "time": "19344i",
      "midiNote": 67,
      "noteName": "G4",
      "velocity": 0.5039370078740157,
      "duration": "32i"
    },
    {
      "time": "19488i",
      "midiNote": 68,
      "noteName": "G#4",
      "velocity": 0.5039370078740157,
      "duration": "32i"
    },
    {
      "time": "19584i",
      "midiNote": 69,
      "noteName": "A4",
      "velocity": 0.5039370078740157,
      "duration": "32i"
    },
    {
      "time": "19632i",
      "midiNote": 77,
      "noteName": "F5",
      "velocity": 0.5039370078740157,
      "duration": "32i"
    },
    {
      "time": "19728i",
      "midiNote": 77,
      "noteName": "F5",
      "velocity": 0.5039370078740157,
      "duration": "32i"
    },
    {
      "time": "19776i",
      "midiNote": 69,
      "noteName": "A4",
      "velocity": 0.5039370078740157,
      "duration": "32i"
    },
    {
      "time": "19968i",
      "midiNote": 71,
      "noteName": "B4",
      "velocity": 0.5039370078740157,
      "duration": "32i"
    },
    {
      "time": "20032i",
      "midiNote": 81,
      "noteName": "A5",
      "velocity": 0.5039370078740157,
      "duration": "32i"
    },
    {
      "time": "20096i",
      "midiNote": 81,
      "noteName": "A5",
      "velocity": 0.5039370078740157,
      "duration": "32i"
    },
    {
      "time": "20160i",
      "midiNote": 81,
      "noteName": "A5",
      "velocity": 0.5039370078740157,
      "duration": "32i"
    },
    {
      "time": "20224i",
      "midiNote": 79,
      "noteName": "G5",
      "velocity": 0.5039370078740157,
      "duration": "32i"
    },
    {
      "time": "20288i",
      "midiNote": 77,
      "noteName": "F5",
      "velocity": 0.5039370078740157,
      "duration": "32i"
    },
    {
      "time": "20352i",
      "midiNote": 76,
      "noteName": "E5",
      "velocity": 0.5039370078740157,
      "duration": "32i"
    },
    {
      "time": "20400i",
      "midiNote": 72,
      "noteName": "C5",
      "velocity": 0.5039370078740157,
      "duration": "32i"
    },
    {
      "time": "20496i",
      "midiNote": 69,
      "noteName": "A4",
      "velocity": 0.5039370078740157,
      "duration": "32i"
    },
    {
      "time": "20544i",
      "midiNote": 67,
      "noteName": "G4",
      "velocity": 0.5039370078740157,
      "duration": "32i"
    },
    {
      "time": "20736i",
      "midiNote": 76,
      "noteName": "E5",
      "velocity": 0.5039370078740157,
      "duration": "32i"
    },
    {
      "time": "20784i",
      "midiNote": 72,
      "noteName": "C5",
      "velocity": 0.5039370078740157,
      "duration": "32i"
    },
    {
      "time": "20880i",
      "midiNote": 67,
      "noteName": "G4",
      "velocity": 0.5039370078740157,
      "duration": "32i"
    },
    {
      "time": "21024i",
      "midiNote": 68,
      "noteName": "G#4",
      "velocity": 0.5039370078740157,
      "duration": "32i"
    },
    {
      "time": "21120i",
      "midiNote": 69,
      "noteName": "A4",
      "velocity": 0.5039370078740157,
      "duration": "32i"
    },
    {
      "time": "21168i",
      "midiNote": 77,
      "noteName": "F5",
      "velocity": 0.5039370078740157,
      "duration": "32i"
    },
    {
      "time": "21264i",
      "midiNote": 77,
      "noteName": "F5",
      "velocity": 0.5039370078740157,
      "duration": "32i"
    },
    {
      "time": "21312i",
      "midiNote": 69,
      "noteName": "A4",
      "velocity": 0.5039370078740157,
      "duration": "32i"
    },
    {
      "time": "21504i",
      "midiNote": 71,
      "noteName": "B4",
      "velocity": 0.5039370078740157,
      "duration": "32i"
    },
    {
      "time": "21552i",
      "midiNote": 77,
      "noteName": "F5",
      "velocity": 0.5039370078740157,
      "duration": "32i"
    },
    {
      "time": "21648i",
      "midiNote": 77,
      "noteName": "F5",
      "velocity": 0.5039370078740157,
      "duration": "32i"
    },
    {
      "time": "21696i",
      "midiNote": 77,
      "noteName": "F5",
      "velocity": 0.5039370078740157,
      "duration": "32i"
    },
    {
      "time": "21760i",
      "midiNote": 76,
      "noteName": "E5",
      "velocity": 0.5039370078740157,
      "duration": "32i"
    },
    {
      "time": "21824i",
      "midiNote": 74,
      "noteName": "D5",
      "velocity": 0.5039370078740157,
      "duration": "32i"
    },
    {
      "time": "21888i",
      "midiNote": 72,
      "noteName": "C5",
      "velocity": 0.5039370078740157,
      "duration": "32i"
    },
    {
      "time": "22272i",
      "midiNote": 72,
      "noteName": "C5",
      "velocity": 0.5039370078740157,
      "duration": "32i"
    },
    {
      "time": "22320i",
      "midiNote": 72,
      "noteName": "C5",
      "velocity": 0.5039370078740157,
      "duration": "32i"
    },
    {
      "time": "22416i",
      "midiNote": 72,
      "noteName": "C5",
      "velocity": 0.5039370078740157,
      "duration": "32i"
    },
    {
      "time": "22512i",
      "midiNote": 72,
      "noteName": "C5",
      "velocity": 0.5039370078740157,
      "duration": "32i"
    },
    {
      "time": "22560i",
      "midiNote": 74,
      "noteName": "D5",
      "velocity": 0.5039370078740157,
      "duration": "32i"
    },
    {
      "time": "22656i",
      "midiNote": 76,
      "noteName": "E5",
      "velocity": 0.5039370078740157,
      "duration": "32i"
    },
    {
      "time": "22704i",
      "midiNote": 72,
      "noteName": "C5",
      "velocity": 0.5039370078740157,
      "duration": "32i"
    },
    {
      "time": "22800i",
      "midiNote": 69,
      "noteName": "A4",
      "velocity": 0.5039370078740157,
      "duration": "32i"
    },
    {
      "time": "22848i",
      "midiNote": 67,
      "noteName": "G4",
      "velocity": 0.5039370078740157,
      "duration": "32i"
    },
    {
      "time": "23040i",
      "midiNote": 72,
      "noteName": "C5",
      "velocity": 0.5039370078740157,
      "duration": "32i"
    },
    {
      "time": "23088i",
      "midiNote": 72,
      "noteName": "C5",
      "velocity": 0.5039370078740157,
      "duration": "32i"
    },
    {
      "time": "23184i",
      "midiNote": 72,
      "noteName": "C5",
      "velocity": 0.5039370078740157,
      "duration": "32i"
    },
    {
      "time": "23280i",
      "midiNote": 72,
      "noteName": "C5",
      "velocity": 0.5039370078740157,
      "duration": "32i"
    },
    {
      "time": "23328i",
      "midiNote": 74,
      "noteName": "D5",
      "velocity": 0.5039370078740157,
      "duration": "32i"
    },
    {
      "time": "23376i",
      "midiNote": 76,
      "noteName": "E5",
      "velocity": 0.5039370078740157,
      "duration": "32i"
    },
    {
      "time": "23808i",
      "midiNote": 72,
      "noteName": "C5",
      "velocity": 0.5039370078740157,
      "duration": "32i"
    },
    {
      "time": "23856i",
      "midiNote": 72,
      "noteName": "C5",
      "velocity": 0.5039370078740157,
      "duration": "32i"
    },
    {
      "time": "23952i",
      "midiNote": 72,
      "noteName": "C5",
      "velocity": 0.5039370078740157,
      "duration": "32i"
    },
    {
      "time": "24048i",
      "midiNote": 72,
      "noteName": "C5",
      "velocity": 0.5039370078740157,
      "duration": "32i"
    },
    {
      "time": "24096i",
      "midiNote": 74,
      "noteName": "D5",
      "velocity": 0.5039370078740157,
      "duration": "32i"
    },
    {
      "time": "24192i",
      "midiNote": 76,
      "noteName": "E5",
      "velocity": 0.5039370078740157,
      "duration": "32i"
    },
    {
      "time": "24240i",
      "midiNote": 72,
      "noteName": "C5",
      "velocity": 0.5039370078740157,
      "duration": "32i"
    },
    {
      "time": "24336i",
      "midiNote": 69,
      "noteName": "A4",
      "velocity": 0.5039370078740157,
      "duration": "32i"
    },
    {
      "time": "24384i",
      "midiNote": 67,
      "noteName": "G4",
      "velocity": 0.5039370078740157,
      "duration": "32i"
    },
    {
      "time": "24576i",
      "midiNote": 76,
      "noteName": "E5",
      "velocity": 0.5039370078740157,
      "duration": "32i"
    },
    {
      "time": "24624i",
      "midiNote": 76,
      "noteName": "E5",
      "velocity": 0.5039370078740157,
      "duration": "32i"
    },
    {
      "time": "24720i",
      "midiNote": 76,
      "noteName": "E5",
      "velocity": 0.5039370078740157,
      "duration": "32i"
    },
    {
      "time": "24816i",
      "midiNote": 72,
      "noteName": "C5",
      "velocity": 0.5039370078740157,
      "duration": "32i"
    },
    {
      "time": "24864i",
      "midiNote": 76,
      "noteName": "E5",
      "velocity": 0.5039370078740157,
      "duration": "32i"
    },
    {
      "time": "24960i",
      "midiNote": 79,
      "noteName": "G5",
      "velocity": 0.5039370078740157,
      "duration": "32i"
    },
    {
      "time": "25344i",
      "midiNote": 76,
      "noteName": "E5",
      "velocity": 0.5039370078740157,
      "duration": "32i"
    },
    {
      "time": "25392i",
      "midiNote": 72,
      "noteName": "C5",
      "velocity": 0.5039370078740157,
      "duration": "32i"
    },
    {
      "time": "25488i",
      "midiNote": 67,
      "noteName": "G4",
      "velocity": 0.5039370078740157,
      "duration": "32i"
    },
    {
      "time": "25632i",
      "midiNote": 68,
      "noteName": "G#4",
      "velocity": 0.5039370078740157,
      "duration": "32i"
    },
    {
      "time": "25728i",
      "midiNote": 69,
      "noteName": "A4",
      "velocity": 0.5039370078740157,
      "duration": "32i"
    },
    {
      "time": "25776i",
      "midiNote": 77,
      "noteName": "F5",
      "velocity": 0.5039370078740157,
      "duration": "32i"
    },
    {
      "time": "25872i",
      "midiNote": 77,
      "noteName": "F5",
      "velocity": 0.5039370078740157,
      "duration": "32i"
    },
    {
      "time": "25920i",
      "midiNote": 69,
      "noteName": "A4",
      "velocity": 0.5039370078740157,
      "duration": "32i"
    },
    {
      "time": "26112i",
      "midiNote": 71,
      "noteName": "B4",
      "velocity": 0.5039370078740157,
      "duration": "32i"
    },
    {
      "time": "26176i",
      "midiNote": 81,
      "noteName": "A5",
      "velocity": 0.5039370078740157,
      "duration": "32i"
    },
    {
      "time": "26240i",
      "midiNote": 81,
      "noteName": "A5",
      "velocity": 0.5039370078740157,
      "duration": "32i"
    },
    {
      "time": "26304i",
      "midiNote": 81,
      "noteName": "A5",
      "velocity": 0.5039370078740157,
      "duration": "32i"
    },
    {
      "time": "26368i",
      "midiNote": 79,
      "noteName": "G5",
      "velocity": 0.5039370078740157,
      "duration": "32i"
    },
    {
      "time": "26432i",
      "midiNote": 77,
      "noteName": "F5",
      "velocity": 0.5039370078740157,
      "duration": "32i"
    },
    {
      "time": "26496i",
      "midiNote": 76,
      "noteName": "E5",
      "velocity": 0.5039370078740157,
      "duration": "32i"
    },
    {
      "time": "26544i",
      "midiNote": 72,
      "noteName": "C5",
      "velocity": 0.5039370078740157,
      "duration": "32i"
    },
    {
      "time": "26640i",
      "midiNote": 69,
      "noteName": "A4",
      "velocity": 0.5039370078740157,
      "duration": "32i"
    },
    {
      "time": "26688i",
      "midiNote": 67,
      "noteName": "G4",
      "velocity": 0.5039370078740157,
      "duration": "32i"
    },
    {
      "time": "26880i",
      "midiNote": 76,
      "noteName": "E5",
      "velocity": 0.5039370078740157,
      "duration": "32i"
    },
    {
      "time": "26928i",
      "midiNote": 72,
      "noteName": "C5",
      "velocity": 0.5039370078740157,
      "duration": "32i"
    },
    {
      "time": "27024i",
      "midiNote": 67,
      "noteName": "G4",
      "velocity": 0.5039370078740157,
      "duration": "32i"
    },
    {
      "time": "27168i",
      "midiNote": 68,
      "noteName": "G#4",
      "velocity": 0.5039370078740157,
      "duration": "32i"
    },
    {
      "time": "27264i",
      "midiNote": 69,
      "noteName": "A4",
      "velocity": 0.5039370078740157,
      "duration": "32i"
    },
    {
      "time": "27312i",
      "midiNote": 77,
      "noteName": "F5",
      "velocity": 0.5039370078740157,
      "duration": "32i"
    },
    {
      "time": "27408i",
      "midiNote": 77,
      "noteName": "F5",
      "velocity": 0.5039370078740157,
      "duration": "32i"
    },
    {
      "time": "27456i",
      "midiNote": 69,
      "noteName": "A4",
      "velocity": 0.5039370078740157,
      "duration": "32i"
    },
    {
      "time": "27648i",
      "midiNote": 71,
      "noteName": "B4",
      "velocity": 0.5039370078740157,
      "duration": "32i"
    },
    {
      "time": "27696i",
      "midiNote": 77,
      "noteName": "F5",
      "velocity": 0.5039370078740157,
      "duration": "32i"
    },
    {
      "time": "27792i",
      "midiNote": 77,
      "noteName": "F5",
      "velocity": 0.5039370078740157,
      "duration": "32i"
    },
    {
      "time": "27840i",
      "midiNote": 77,
      "noteName": "F5",
      "velocity": 0.5039370078740157,
      "duration": "32i"
    },
    {
      "time": "27904i",
      "midiNote": 76,
      "noteName": "E5",
      "velocity": 0.5039370078740157,
      "duration": "32i"
    },
    {
      "time": "27968i",
      "midiNote": 74,
      "noteName": "D5",
      "velocity": 0.5039370078740157,
      "duration": "32i"
    },
    {
      "time": "28032i",
      "midiNote": 72,
      "noteName": "C5",
      "velocity": 0.5039370078740157,
      "duration": "32i"
    }
  ],
  [
    {
      "time": "0i",
      "midiNote": 66,
      "noteName": "F#4",
      "velocity": 0.5039370078740157,
      "duration": "32i"
    },
    {
      "time": "48i",
      "midiNote": 66,
      "noteName": "F#4",
      "velocity": 0.5039370078740157,
      "duration": "32i"
    },
    {
      "time": "144i",
      "midiNote": 66,
      "noteName": "F#4",
      "velocity": 0.5039370078740157,
      "duration": "32i"
    },
    {
      "time": "240i",
      "midiNote": 66,
      "noteName": "F#4",
      "velocity": 0.5039370078740157,
      "duration": "32i"
    },
    {
      "time": "288i",
      "midiNote": 66,
      "noteName": "F#4",
      "velocity": 0.5039370078740157,
      "duration": "32i"
    },
    {
      "time": "384i",
      "midiNote": 71,
      "noteName": "B4",
      "velocity": 0.5039370078740157,
      "duration": "32i"
    },
    {
      "time": "576i",
      "midiNote": 67,
      "noteName": "G4",
      "velocity": 0.5039370078740157,
      "duration": "32i"
    },
    {
      "time": "768i",
      "midiNote": 64,
      "noteName": "E4",
      "velocity": 0.5039370078740157,
      "duration": "32i"
    },
    {
      "time": "912i",
      "midiNote": 60,
      "noteName": "C4",
      "velocity": 0.5039370078740157,
      "duration": "32i"
    },
    {
      "time": "1056i",
      "midiNote": 55,
      "noteName": "G3",
      "velocity": 0.5039370078740157,
      "duration": "32i"
    },
    {
      "time": "1200i",
      "midiNote": 60,
      "noteName": "C4",
      "velocity": 0.5039370078740157,
      "duration": "32i"
    },
    {
      "time": "1296i",
      "midiNote": 62,
      "noteName": "D4",
      "velocity": 0.5039370078740157,
      "duration": "32i"
    },
    {
      "time": "1392i",
      "midiNote": 61,
      "noteName": "C#4",
      "velocity": 0.5039370078740157,
      "duration": "32i"
    },
    {
      "time": "1440i",
      "midiNote": 60,
      "noteName": "C4",
      "velocity": 0.5039370078740157,
      "duration": "32i"
    },
    {
      "time": "1536i",
      "midiNote": 60,
      "noteName": "C4",
      "velocity": 0.5039370078740157,
      "duration": "32i"
    },
    {
      "time": "1600i",
      "midiNote": 67,
      "noteName": "G4",
      "velocity": 0.5039370078740157,
      "duration": "32i"
    },
    {
      "time": "1664i",
      "midiNote": 71,
      "noteName": "B4",
      "velocity": 0.5039370078740157,
      "duration": "32i"
    },
    {
      "time": "1728i",
      "midiNote": 72,
      "noteName": "C5",
      "velocity": 0.5039370078740157,
      "duration": "32i"
    },
    {
      "time": "1824i",
      "midiNote": 69,
      "noteName": "A4",
      "velocity": 0.5039370078740157,
      "duration": "32i"
    },
    {
      "time": "1872i",
      "midiNote": 71,
      "noteName": "B4",
      "velocity": 0.5039370078740157,
      "duration": "32i"
    },
    {
      "time": "1968i",
      "midiNote": 69,
      "noteName": "A4",
      "velocity": 0.5039370078740157,
      "duration": "32i"
    },
    {
      "time": "2064i",
      "midiNote": 64,
      "noteName": "E4",
      "velocity": 0.5039370078740157,
      "duration": "32i"
    },
    {
      "time": "2112i",
      "midiNote": 65,
      "noteName": "F4",
      "velocity": 0.5039370078740157,
      "duration": "32i"
    },
    {
      "time": "2160i",
      "midiNote": 62,
      "noteName": "D4",
      "velocity": 0.5039370078740157,
      "duration": "32i"
    },
    {
      "time": "2304i",
      "midiNote": 64,
      "noteName": "E4",
      "velocity": 0.5039370078740157,
      "duration": "32i"
    },
    {
      "time": "2448i",
      "midiNote": 60,
      "noteName": "C4",
      "velocity": 0.5039370078740157,
      "duration": "32i"
    },
    {
      "time": "2592i",
      "midiNote": 55,
      "noteName": "G3",
      "velocity": 0.5039370078740157,
      "duration": "32i"
    },
    {
      "time": "2736i",
      "midiNote": 60,
      "noteName": "C4",
      "velocity": 0.5039370078740157,
      "duration": "32i"
    },
    {
      "time": "2832i",
      "midiNote": 62,
      "noteName": "D4",
      "velocity": 0.5039370078740157,
      "duration": "32i"
    },
    {
      "time": "2928i",
      "midiNote": 61,
      "noteName": "C#4",
      "velocity": 0.5039370078740157,
      "duration": "32i"
    },
    {
      "time": "2976i",
      "midiNote": 60,
      "noteName": "C4",
      "velocity": 0.5039370078740157,
      "duration": "32i"
    },
    {
      "time": "3072i",
      "midiNote": 60,
      "noteName": "C4",
      "velocity": 0.5039370078740157,
      "duration": "32i"
    },
    {
      "time": "3136i",
      "midiNote": 67,
      "noteName": "G4",
      "velocity": 0.5039370078740157,
      "duration": "32i"
    },
    {
      "time": "3200i",
      "midiNote": 71,
      "noteName": "B4",
      "velocity": 0.5039370078740157,
      "duration": "32i"
    },
    {
      "time": "3264i",
      "midiNote": 72,
      "noteName": "C5",
      "velocity": 0.5039370078740157,
      "duration": "32i"
    },
    {
      "time": "3360i",
      "midiNote": 69,
      "noteName": "A4",
      "velocity": 0.5039370078740157,
      "duration": "32i"
    },
    {
      "time": "3408i",
      "midiNote": 71,
      "noteName": "B4",
      "velocity": 0.5039370078740157,
      "duration": "32i"
    },
    {
      "time": "3504i",
      "midiNote": 69,
      "noteName": "A4",
      "velocity": 0.5039370078740157,
      "duration": "32i"
    },
    {
      "time": "3600i",
      "midiNote": 64,
      "noteName": "E4",
      "velocity": 0.5039370078740157,
      "duration": "32i"
    },
    {
      "time": "3648i",
      "midiNote": 65,
      "noteName": "F4",
      "velocity": 0.5039370078740157,
      "duration": "32i"
    },
    {
      "time": "3696i",
      "midiNote": 62,
      "noteName": "D4",
      "velocity": 0.5039370078740157,
      "duration": "32i"
    },
    {
      "time": "3936i",
      "midiNote": 76,
      "noteName": "E5",
      "velocity": 0.5039370078740157,
      "duration": "32i"
    },
    {
      "time": "3984i",
      "midiNote": 75,
      "noteName": "D#5",
      "velocity": 0.5039370078740157,
      "duration": "32i"
    },
    {
      "time": "4032i",
      "midiNote": 74,
      "noteName": "D5",
      "velocity": 0.5039370078740157,
      "duration": "32i"
    },
    {
      "time": "4080i",
      "midiNote": 71,
      "noteName": "B4",
      "velocity": 0.5039370078740157,
      "duration": "32i"
    },
    {
      "time": "4176i",
      "midiNote": 72,
      "noteName": "C5",
      "velocity": 0.5039370078740157,
      "duration": "32i"
    },
    {
      "time": "4272i",
      "midiNote": 64,
      "noteName": "E4",
      "velocity": 0.5039370078740157,
      "duration": "32i"
    },
    {
      "time": "4320i",
      "midiNote": 65,
      "noteName": "F4",
      "velocity": 0.5039370078740157,
      "duration": "32i"
    },
    {
      "time": "4368i",
      "midiNote": 67,
      "noteName": "G4",
      "velocity": 0.5039370078740157,
      "duration": "32i"
    },
    {
      "time": "4464i",
      "midiNote": 60,
      "noteName": "C4",
      "velocity": 0.5039370078740157,
      "duration": "32i"
    },
    {
      "time": "4512i",
      "midiNote": 64,
      "noteName": "E4",
      "velocity": 0.5039370078740157,
      "duration": "32i"
    },
    {
      "time": "4560i",
      "midiNote": 65,
      "noteName": "F4",
      "velocity": 0.5039370078740157,
      "duration": "32i"
    },
    {
      "time": "4704i",
      "midiNote": 76,
      "noteName": "E5",
      "velocity": 0.5039370078740157,
      "duration": "32i"
    },
    {
      "time": "4752i",
      "midiNote": 75,
      "noteName": "D#5",
      "velocity": 0.5039370078740157,
      "duration": "32i"
    },
    {
      "time": "4800i",
      "midiNote": 74,
      "noteName": "D5",
      "velocity": 0.5039370078740157,
      "duration": "32i"
    },
    {
      "time": "4848i",
      "midiNote": 71,
      "noteName": "B4",
      "velocity": 0.5039370078740157,
      "duration": "32i"
    },
    {
      "time": "4944i",
      "midiNote": 72,
      "noteName": "C5",
      "velocity": 0.5039370078740157,
      "duration": "32i"
    },
    {
      "time": "5040i",
      "midiNote": 77,
      "noteName": "F5",
      "velocity": 0.5039370078740157,
      "duration": "32i"
    },
    {
      "time": "5136i",
      "midiNote": 77,
      "noteName": "F5",
      "velocity": 0.5039370078740157,
      "duration": "32i"
    },
    {
      "time": "5184i",
      "midiNote": 77,
      "noteName": "F5",
      "velocity": 0.5039370078740157,
      "duration": "32i"
    },
    {
      "time": "5472i",
      "midiNote": 76,
      "noteName": "E5",
      "velocity": 0.5039370078740157,
      "duration": "32i"
    },
    {
      "time": "5520i",
      "midiNote": 75,
      "noteName": "D#5",
      "velocity": 0.5039370078740157,
      "duration": "32i"
    },
    {
      "time": "5568i",
      "midiNote": 74,
      "noteName": "D5",
      "velocity": 0.5039370078740157,
      "duration": "32i"
    },
    {
      "time": "5616i",
      "midiNote": 71,
      "noteName": "B4",
      "velocity": 0.5039370078740157,
      "duration": "32i"
    },
    {
      "time": "5712i",
      "midiNote": 72,
      "noteName": "C5",
      "velocity": 0.5039370078740157,
      "duration": "32i"
    },
    {
      "time": "5808i",
      "midiNote": 64,
      "noteName": "E4",
      "velocity": 0.5039370078740157,
      "duration": "32i"
    },
    {
      "time": "5856i",
      "midiNote": 65,
      "noteName": "F4",
      "velocity": 0.5039370078740157,
      "duration": "32i"
    },
    {
      "time": "5904i",
      "midiNote": 67,
      "noteName": "G4",
      "velocity": 0.5039370078740157,
      "duration": "32i"
    },
    {
      "time": "6000i",
      "midiNote": 60,
      "noteName": "C4",
      "velocity": 0.5039370078740157,
      "duration": "32i"
    },
    {
      "time": "6048i",
      "midiNote": 64,
      "noteName": "E4",
      "velocity": 0.5039370078740157,
      "duration": "32i"
    },
    {
      "time": "6096i",
      "midiNote": 65,
      "noteName": "F4",
      "velocity": 0.5039370078740157,
      "duration": "32i"
    },
    {
      "time": "6240i",
      "midiNote": 68,
      "noteName": "G#4",
      "velocity": 0.5039370078740157,
      "duration": "32i"
    },
    {
      "time": "6384i",
      "midiNote": 65,
      "noteName": "F4",
      "velocity": 0.5039370078740157,
      "duration": "32i"
    },
    {
      "time": "6528i",
      "midiNote": 64,
      "noteName": "E4",
      "velocity": 0.5039370078740157,
      "duration": "32i"
    },
    {
      "time": "7008i",
      "midiNote": 76,
      "noteName": "E5",
      "velocity": 0.5039370078740157,
      "duration": "32i"
    },
    {
      "time": "7056i",
      "midiNote": 75,
      "noteName": "D#5",
      "velocity": 0.5039370078740157,
      "duration": "32i"
    },
    {
      "time": "7104i",
      "midiNote": 74,
      "noteName": "D5",
      "velocity": 0.5039370078740157,
      "duration": "32i"
    },
    {
      "time": "7152i",
      "midiNote": 71,
      "noteName": "B4",
      "velocity": 0.5039370078740157,
      "duration": "32i"
    },
    {
      "time": "7248i",
      "midiNote": 72,
      "noteName": "C5",
      "velocity": 0.5039370078740157,
      "duration": "32i"
    },
    {
      "time": "7344i",
      "midiNote": 64,
      "noteName": "E4",
      "velocity": 0.5039370078740157,
      "duration": "32i"
    },
    {
      "time": "7392i",
      "midiNote": 65,
      "noteName": "F4",
      "velocity": 0.5039370078740157,
      "duration": "32i"
    },
    {
      "time": "7440i",
      "midiNote": 67,
      "noteName": "G4",
      "velocity": 0.5039370078740157,
      "duration": "32i"
    },
    {
      "time": "7536i",
      "midiNote": 60,
      "noteName": "C4",
      "velocity": 0.5039370078740157,
      "duration": "32i"
    },
    {
      "time": "7584i",
      "midiNote": 64,
      "noteName": "E4",
      "velocity": 0.5039370078740157,
      "duration": "32i"
    },
    {
      "time": "7632i",
      "midiNote": 65,
      "noteName": "F4",
      "velocity": 0.5039370078740157,
      "duration": "32i"
    },
    {
      "time": "7776i",
      "midiNote": 76,
      "noteName": "E5",
      "velocity": 0.5039370078740157,
      "duration": "32i"
    },
    {
      "time": "7824i",
      "midiNote": 75,
      "noteName": "D#5",
      "velocity": 0.5039370078740157,
      "duration": "32i"
    },
    {
      "time": "7872i",
      "midiNote": 74,
      "noteName": "D5",
      "velocity": 0.5039370078740157,
      "duration": "32i"
    },
    {
      "time": "7920i",
      "midiNote": 71,
      "noteName": "B4",
      "velocity": 0.5039370078740157,
      "duration": "32i"
    },
    {
      "time": "8016i",
      "midiNote": 72,
      "noteName": "C5",
      "velocity": 0.5039370078740157,
      "duration": "32i"
    },
    {
      "time": "8112i",
      "midiNote": 77,
      "noteName": "F5",
      "velocity": 0.5039370078740157,
      "duration": "32i"
    },
    {
      "time": "8208i",
      "midiNote": 77,
      "noteName": "F5",
      "velocity": 0.5039370078740157,
      "duration": "32i"
    },
    {
      "time": "8256i",
      "midiNote": 77,
      "noteName": "F5",
      "velocity": 0.5039370078740157,
      "duration": "32i"
    },
    {
      "time": "8544i",
      "midiNote": 76,
      "noteName": "E5",
      "velocity": 0.5039370078740157,
      "duration": "32i"
    },
    {
      "time": "8592i",
      "midiNote": 75,
      "noteName": "D#5",
      "velocity": 0.5039370078740157,
      "duration": "32i"
    },
    {
      "time": "8640i",
      "midiNote": 74,
      "noteName": "D5",
      "velocity": 0.5039370078740157,
      "duration": "32i"
    },
    {
      "time": "8688i",
      "midiNote": 71,
      "noteName": "B4",
      "velocity": 0.5039370078740157,
      "duration": "32i"
    },
    {
      "time": "8784i",
      "midiNote": 72,
      "noteName": "C5",
      "velocity": 0.5039370078740157,
      "duration": "32i"
    },
    {
      "time": "8880i",
      "midiNote": 64,
      "noteName": "E4",
      "velocity": 0.5039370078740157,
      "duration": "32i"
    },
    {
      "time": "8928i",
      "midiNote": 65,
      "noteName": "F4",
      "velocity": 0.5039370078740157,
      "duration": "32i"
    },
    {
      "time": "8976i",
      "midiNote": 67,
      "noteName": "G4",
      "velocity": 0.5039370078740157,
      "duration": "32i"
    },
    {
      "time": "9072i",
      "midiNote": 60,
      "noteName": "C4",
      "velocity": 0.5039370078740157,
      "duration": "32i"
    },
    {
      "time": "9120i",
      "midiNote": 64,
      "noteName": "E4",
      "velocity": 0.5039370078740157,
      "duration": "32i"
    },
    {
      "time": "9168i",
      "midiNote": 65,
      "noteName": "F4",
      "velocity": 0.5039370078740157,
      "duration": "32i"
    },
    {
      "time": "9312i",
      "midiNote": 68,
      "noteName": "G#4",
      "velocity": 0.5039370078740157,
      "duration": "32i"
    },
    {
      "time": "9456i",
      "midiNote": 65,
      "noteName": "F4",
      "velocity": 0.5039370078740157,
      "duration": "32i"
    },
    {
      "time": "9600i",
      "midiNote": 64,
      "noteName": "E4",
      "velocity": 0.5039370078740157,
      "duration": "32i"
    },
    {
      "time": "9984i",
      "midiNote": 68,
      "noteName": "G#4",
      "velocity": 0.5039370078740157,
      "duration": "32i"
    },
    {
      "time": "10032i",
      "midiNote": 68,
      "noteName": "G#4",
      "velocity": 0.5039370078740157,
      "duration": "32i"
    },
    {
      "time": "10128i",
      "midiNote": 68,
      "noteName": "G#4",
      "velocity": 0.5039370078740157,
      "duration": "32i"
    },
    {
      "time": "10224i",
      "midiNote": 68,
      "noteName": "G#4",
      "velocity": 0.5039370078740157,
      "duration": "32i"
    },
    {
      "time": "10272i",
      "midiNote": 70,
      "noteName": "A#4",
      "velocity": 0.5039370078740157,
      "duration": "32i"
    },
    {
      "time": "10368i",
      "midiNote": 67,
      "noteName": "G4",
      "velocity": 0.5039370078740157,
      "duration": "32i"
    },
    {
      "time": "10416i",
      "midiNote": 64,
      "noteName": "E4",
      "velocity": 0.5039370078740157,
      "duration": "32i"
    },
    {
      "time": "10512i",
      "midiNote": 64,
      "noteName": "E4",
      "velocity": 0.5039370078740157,
      "duration": "32i"
    },
    {
      "time": "10560i",
      "midiNote": 60,
      "noteName": "C4",
      "velocity": 0.5039370078740157,
      "duration": "32i"
    },
    {
      "time": "10752i",
      "midiNote": 68,
      "noteName": "G#4",
      "velocity": 0.5039370078740157,
      "duration": "32i"
    },
    {
      "time": "10800i",
      "midiNote": 68,
      "noteName": "G#4",
      "velocity": 0.5039370078740157,
      "duration": "32i"
    },
    {
      "time": "10896i",
      "midiNote": 68,
      "noteName": "G#4",
      "velocity": 0.5039370078740157,
      "duration": "32i"
    },
    {
      "time": "10992i",
      "midiNote": 68,
      "noteName": "G#4",
      "velocity": 0.5039370078740157,
      "duration": "32i"
    },
    {
      "time": "11040i",
      "midiNote": 70,
      "noteName": "A#4",
      "velocity": 0.5039370078740157,
      "duration": "32i"
    },
    {
      "time": "11088i",
      "midiNote": 67,
      "noteName": "G4",
      "velocity": 0.5039370078740157,
      "duration": "32i"
    },
    {
      "time": "11520i",
      "midiNote": 68,
      "noteName": "G#4",
      "velocity": 0.5039370078740157,
      "duration": "32i"
    },
    {
      "time": "11568i",
      "midiNote": 68,
      "noteName": "G#4",
      "velocity": 0.5039370078740157,
      "duration": "32i"
    },
    {
      "time": "11664i",
      "midiNote": 68,
      "noteName": "G#4",
      "velocity": 0.5039370078740157,
      "duration": "32i"
    },
    {
      "time": "11760i",
      "midiNote": 68,
      "noteName": "G#4",
      "velocity": 0.5039370078740157,
      "duration": "32i"
    },
    {
      "time": "11808i",
      "midiNote": 70,
      "noteName": "A#4",
      "velocity": 0.5039370078740157,
      "duration": "32i"
    },
    {
      "time": "11904i",
      "midiNote": 67,
      "noteName": "G4",
      "velocity": 0.5039370078740157,
      "duration": "32i"
    },
    {
      "time": "11952i",
      "midiNote": 64,
      "noteName": "E4",
      "velocity": 0.5039370078740157,
      "duration": "32i"
    },
    {
      "time": "12048i",
      "midiNote": 64,
      "noteName": "E4",
      "velocity": 0.5039370078740157,
      "duration": "32i"
    },
    {
      "time": "12096i",
      "midiNote": 60,
      "noteName": "C4",
      "velocity": 0.5039370078740157,
      "duration": "32i"
    },
    {
      "time": "12288i",
      "midiNote": 66,
      "noteName": "F#4",
      "velocity": 0.5039370078740157,
      "duration": "32i"
    },
    {
      "time": "12336i",
      "midiNote": 66,
      "noteName": "F#4",
      "velocity": 0.5039370078740157,
      "duration": "32i"
    },
    {
      "time": "12432i",
      "midiNote": 66,
      "noteName": "F#4",
      "velocity": 0.5039370078740157,
      "duration": "32i"
    },
    {
      "time": "12528i",
      "midiNote": 66,
      "noteName": "F#4",
      "velocity": 0.5039370078740157,
      "duration": "32i"
    },
    {
      "time": "12576i",
      "midiNote": 66,
      "noteName": "F#4",
      "velocity": 0.5039370078740157,
      "duration": "32i"
    },
    {
      "time": "12672i",
      "midiNote": 71,
      "noteName": "B4",
      "velocity": 0.5039370078740157,
      "duration": "32i"
    },
    {
      "time": "12864i",
      "midiNote": 67,
      "noteName": "G4",
      "velocity": 0.5039370078740157,
      "duration": "32i"
    },
    {
      "time": "13056i",
      "midiNote": 64,
      "noteName": "E4",
      "velocity": 0.5039370078740157,
      "duration": "32i"
    },
    {
      "time": "13200i",
      "midiNote": 60,
      "noteName": "C4",
      "velocity": 0.5039370078740157,
      "duration": "32i"
    },
    {
      "time": "13344i",
      "midiNote": 55,
      "noteName": "G3",
      "velocity": 0.5039370078740157,
      "duration": "32i"
    },
    {
      "time": "13488i",
      "midiNote": 60,
      "noteName": "C4",
      "velocity": 0.5039370078740157,
      "duration": "32i"
    },
    {
      "time": "13584i",
      "midiNote": 62,
      "noteName": "D4",
      "velocity": 0.5039370078740157,
      "duration": "32i"
    },
    {
      "time": "13680i",
      "midiNote": 61,
      "noteName": "C#4",
      "velocity": 0.5039370078740157,
      "duration": "32i"
    },
    {
      "time": "13728i",
      "midiNote": 60,
      "noteName": "C4",
      "velocity": 0.5039370078740157,
      "duration": "32i"
    },
    {
      "time": "13824i",
      "midiNote": 60,
      "noteName": "C4",
      "velocity": 0.5039370078740157,
      "duration": "32i"
    },
    {
      "time": "13888i",
      "midiNote": 67,
      "noteName": "G4",
      "velocity": 0.5039370078740157,
      "duration": "32i"
    },
    {
      "time": "13952i",
      "midiNote": 71,
      "noteName": "B4",
      "velocity": 0.5039370078740157,
      "duration": "32i"
    },
    {
      "time": "14016i",
      "midiNote": 72,
      "noteName": "C5",
      "velocity": 0.5039370078740157,
      "duration": "32i"
    },
    {
      "time": "14112i",
      "midiNote": 69,
      "noteName": "A4",
      "velocity": 0.5039370078740157,
      "duration": "32i"
    },
    {
      "time": "14160i",
      "midiNote": 71,
      "noteName": "B4",
      "velocity": 0.5039370078740157,
      "duration": "32i"
    },
    {
      "time": "14256i",
      "midiNote": 69,
      "noteName": "A4",
      "velocity": 0.5039370078740157,
      "duration": "32i"
    },
    {
      "time": "14352i",
      "midiNote": 64,
      "noteName": "E4",
      "velocity": 0.5039370078740157,
      "duration": "32i"
    },
    {
      "time": "14400i",
      "midiNote": 65,
      "noteName": "F4",
      "velocity": 0.5039370078740157,
      "duration": "32i"
    },
    {
      "time": "14448i",
      "midiNote": 62,
      "noteName": "D4",
      "velocity": 0.5039370078740157,
      "duration": "32i"
    },
    {
      "time": "14592i",
      "midiNote": 64,
      "noteName": "E4",
      "velocity": 0.5039370078740157,
      "duration": "32i"
    },
    {
      "time": "14736i",
      "midiNote": 60,
      "noteName": "C4",
      "velocity": 0.5039370078740157,
      "duration": "32i"
    },
    {
      "time": "14880i",
      "midiNote": 55,
      "noteName": "G3",
      "velocity": 0.5039370078740157,
      "duration": "32i"
    },
    {
      "time": "15024i",
      "midiNote": 60,
      "noteName": "C4",
      "velocity": 0.5039370078740157,
      "duration": "32i"
    },
    {
      "time": "15120i",
      "midiNote": 62,
      "noteName": "D4",
      "velocity": 0.5039370078740157,
      "duration": "32i"
    },
    {
      "time": "15216i",
      "midiNote": 61,
      "noteName": "C#4",
      "velocity": 0.5039370078740157,
      "duration": "32i"
    },
    {
      "time": "15264i",
      "midiNote": 60,
      "noteName": "C4",
      "velocity": 0.5039370078740157,
      "duration": "32i"
    },
    {
      "time": "15360i",
      "midiNote": 60,
      "noteName": "C4",
      "velocity": 0.5039370078740157,
      "duration": "32i"
    },
    {
      "time": "15424i",
      "midiNote": 67,
      "noteName": "G4",
      "velocity": 0.5039370078740157,
      "duration": "32i"
    },
    {
      "time": "15488i",
      "midiNote": 71,
      "noteName": "B4",
      "velocity": 0.5039370078740157,
      "duration": "32i"
    },
    {
      "time": "15552i",
      "midiNote": 72,
      "noteName": "C5",
      "velocity": 0.5039370078740157,
      "duration": "32i"
    },
    {
      "time": "15648i",
      "midiNote": 69,
      "noteName": "A4",
      "velocity": 0.5039370078740157,
      "duration": "32i"
    },
    {
      "time": "15696i",
      "midiNote": 71,
      "noteName": "B4",
      "velocity": 0.5039370078740157,
      "duration": "32i"
    },
    {
      "time": "15792i",
      "midiNote": 69,
      "noteName": "A4",
      "velocity": 0.5039370078740157,
      "duration": "32i"
    },
    {
      "time": "15888i",
      "midiNote": 64,
      "noteName": "E4",
      "velocity": 0.5039370078740157,
      "duration": "32i"
    },
    {
      "time": "15936i",
      "midiNote": 65,
      "noteName": "F4",
      "velocity": 0.5039370078740157,
      "duration": "32i"
    },
    {
      "time": "15984i",
      "midiNote": 62,
      "noteName": "D4",
      "velocity": 0.5039370078740157,
      "duration": "32i"
    },
    {
      "time": "16128i",
      "midiNote": 72,
      "noteName": "C5",
      "velocity": 0.5039370078740157,
      "duration": "32i"
    },
    {
      "time": "16176i",
      "midiNote": 69,
      "noteName": "A4",
      "velocity": 0.5039370078740157,
      "duration": "32i"
    },
    {
      "time": "16272i",
      "midiNote": 64,
      "noteName": "E4",
      "velocity": 0.5039370078740157,
      "duration": "32i"
    },
    {
      "time": "16416i",
      "midiNote": 64,
      "noteName": "E4",
      "velocity": 0.5039370078740157,
      "duration": "32i"
    },
    {
      "time": "16512i",
      "midiNote": 65,
      "noteName": "F4",
      "velocity": 0.5039370078740157,
      "duration": "32i"
    },
    {
      "time": "16560i",
      "midiNote": 72,
      "noteName": "C5",
      "velocity": 0.5039370078740157,
      "duration": "32i"
    },
    {
      "time": "16656i",
      "midiNote": 72,
      "noteName": "C5",
      "velocity": 0.5039370078740157,
      "duration": "32i"
    },
    {
      "time": "16704i",
      "midiNote": 65,
      "noteName": "F4",
      "velocity": 0.5039370078740157,
      "duration": "32i"
    },
    {
      "time": "16896i",
      "midiNote": 67,
      "noteName": "G4",
      "velocity": 0.5039370078740157,
      "duration": "32i"
    },
    {
      "time": "16960i",
      "midiNote": 77,
      "noteName": "F5",
      "velocity": 0.5039370078740157,
      "duration": "32i"
    },
    {
      "time": "17024i",
      "midiNote": 77,
      "noteName": "F5",
      "velocity": 0.5039370078740157,
      "duration": "32i"
    },
    {
      "time": "17088i",
      "midiNote": 77,
      "noteName": "F5",
      "velocity": 0.5039370078740157,
      "duration": "32i"
    },
    {
      "time": "17152i",
      "midiNote": 76,
      "noteName": "E5",
      "velocity": 0.5039370078740157,
      "duration": "32i"
    },
    {
      "time": "17216i",
      "midiNote": 74,
      "noteName": "D5",
      "velocity": 0.5039370078740157,
      "duration": "32i"
    },
    {
      "time": "17280i",
      "midiNote": 72,
      "noteName": "C5",
      "velocity": 0.5039370078740157,
      "duration": "32i"
    },
    {
      "time": "17328i",
      "midiNote": 69,
      "noteName": "A4",
      "velocity": 0.5039370078740157,
      "duration": "32i"
    },
    {
      "time": "17424i",
      "midiNote": 65,
      "noteName": "F4",
      "velocity": 0.5039370078740157,
      "duration": "32i"
    },
    {
      "time": "17472i",
      "midiNote": 64,
      "noteName": "E4",
      "velocity": 0.5039370078740157,
      "duration": "32i"
    },
    {
      "time": "17664i",
      "midiNote": 72,
      "noteName": "C5",
      "velocity": 0.5039370078740157,
      "duration": "32i"
    },
    {
      "time": "17712i",
      "midiNote": 69,
      "noteName": "A4",
      "velocity": 0.5039370078740157,
      "duration": "32i"
    },
    {
      "time": "17808i",
      "midiNote": 64,
      "noteName": "E4",
      "velocity": 0.5039370078740157,
      "duration": "32i"
    },
    {
      "time": "17952i",
      "midiNote": 64,
      "noteName": "E4",
      "velocity": 0.5039370078740157,
      "duration": "32i"
    },
    {
      "time": "18048i",
      "midiNote": 65,
      "noteName": "F4",
      "velocity": 0.5039370078740157,
      "duration": "32i"
    },
    {
      "time": "18096i",
      "midiNote": 72,
      "noteName": "C5",
      "velocity": 0.5039370078740157,
      "duration": "32i"
    },
    {
      "time": "18192i",
      "midiNote": 72,
      "noteName": "C5",
      "velocity": 0.5039370078740157,
      "duration": "32i"
    },
    {
      "time": "18240i",
      "midiNote": 65,
      "noteName": "F4",
      "velocity": 0.5039370078740157,
      "duration": "32i"
    },
    {
      "time": "18432i",
      "midiNote": 67,
      "noteName": "G4",
      "velocity": 0.5039370078740157,
      "duration": "32i"
    },
    {
      "time": "18480i",
      "midiNote": 74,
      "noteName": "D5",
      "velocity": 0.5039370078740157,
      "duration": "32i"
    },
    {
      "time": "18576i",
      "midiNote": 74,
      "noteName": "D5",
      "velocity": 0.5039370078740157,
      "duration": "32i"
    },
    {
      "time": "18624i",
      "midiNote": 74,
      "noteName": "D5",
      "velocity": 0.5039370078740157,
      "duration": "32i"
    },
    {
      "time": "18688i",
      "midiNote": 72,
      "noteName": "C5",
      "velocity": 0.5039370078740157,
      "duration": "32i"
    },
    {
      "time": "18752i",
      "midiNote": 71,
      "noteName": "B4",
      "velocity": 0.5039370078740157,
      "duration": "32i"
    },
    {
      "time": "18816i",
      "midiNote": 67,
      "noteName": "G4",
      "velocity": 0.5039370078740157,
      "duration": "32i"
    },
    {
      "time": "18864i",
      "midiNote": 64,
      "noteName": "E4",
      "velocity": 0.5039370078740157,
      "duration": "32i"
    },
    {
      "time": "18960i",
      "midiNote": 64,
      "noteName": "E4",
      "velocity": 0.5039370078740157,
      "duration": "32i"
    },
    {
      "time": "19008i",
      "midiNote": 60,
      "noteName": "C4",
      "velocity": 0.5039370078740157,
      "duration": "32i"
    },
    {
      "time": "19200i",
      "midiNote": 72,
      "noteName": "C5",
      "velocity": 0.5039370078740157,
      "duration": "32i"
    },
    {
      "time": "19248i",
      "midiNote": 69,
      "noteName": "A4",
      "velocity": 0.5039370078740157,
      "duration": "32i"
    },
    {
      "time": "19344i",
      "midiNote": 64,
      "noteName": "E4",
      "velocity": 0.5039370078740157,
      "duration": "32i"
    },
    {
      "time": "19488i",
      "midiNote": 64,
      "noteName": "E4",
      "velocity": 0.5039370078740157,
      "duration": "32i"
    },
    {
      "time": "19584i",
      "midiNote": 65,
      "noteName": "F4",
      "velocity": 0.5039370078740157,
      "duration": "32i"
    },
    {
      "time": "19632i",
      "midiNote": 72,
      "noteName": "C5",
      "velocity": 0.5039370078740157,
      "duration": "32i"
    },
    {
      "time": "19728i",
      "midiNote": 72,
      "noteName": "C5",
      "velocity": 0.5039370078740157,
      "duration": "32i"
    },
    {
      "time": "19776i",
      "midiNote": 65,
      "noteName": "F4",
      "velocity": 0.5039370078740157,
      "duration": "32i"
    },
    {
      "time": "19968i",
      "midiNote": 67,
      "noteName": "G4",
      "velocity": 0.5039370078740157,
      "duration": "32i"
    },
    {
      "time": "20032i",
      "midiNote": 77,
      "noteName": "F5",
      "velocity": 0.5039370078740157,
      "duration": "32i"
    },
    {
      "time": "20096i",
      "midiNote": 77,
      "noteName": "F5",
      "velocity": 0.5039370078740157,
      "duration": "32i"
    },
    {
      "time": "20160i",
      "midiNote": 77,
      "noteName": "F5",
      "velocity": 0.5039370078740157,
      "duration": "32i"
    },
    {
      "time": "20224i",
      "midiNote": 76,
      "noteName": "E5",
      "velocity": 0.5039370078740157,
      "duration": "32i"
    },
    {
      "time": "20288i",
      "midiNote": 74,
      "noteName": "D5",
      "velocity": 0.5039370078740157,
      "duration": "32i"
    },
    {
      "time": "20352i",
      "midiNote": 72,
      "noteName": "C5",
      "velocity": 0.5039370078740157,
      "duration": "32i"
    },
    {
      "time": "20400i",
      "midiNote": 69,
      "noteName": "A4",
      "velocity": 0.5039370078740157,
      "duration": "32i"
    },
    {
      "time": "20496i",
      "midiNote": 65,
      "noteName": "F4",
      "velocity": 0.5039370078740157,
      "duration": "32i"
    },
    {
      "time": "20544i",
      "midiNote": 64,
      "noteName": "E4",
      "velocity": 0.5039370078740157,
      "duration": "32i"
    },
    {
      "time": "20736i",
      "midiNote": 72,
      "noteName": "C5",
      "velocity": 0.5039370078740157,
      "duration": "32i"
    },
    {
      "time": "20784i",
      "midiNote": 69,
      "noteName": "A4",
      "velocity": 0.5039370078740157,
      "duration": "32i"
    },
    {
      "time": "20880i",
      "midiNote": 64,
      "noteName": "E4",
      "velocity": 0.5039370078740157,
      "duration": "32i"
    },
    {
      "time": "21024i",
      "midiNote": 64,
      "noteName": "E4",
      "velocity": 0.5039370078740157,
      "duration": "32i"
    },
    {
      "time": "21120i",
      "midiNote": 65,
      "noteName": "F4",
      "velocity": 0.5039370078740157,
      "duration": "32i"
    },
    {
      "time": "21168i",
      "midiNote": 72,
      "noteName": "C5",
      "velocity": 0.5039370078740157,
      "duration": "32i"
    },
    {
      "time": "21264i",
      "midiNote": 72,
      "noteName": "C5",
      "velocity": 0.5039370078740157,
      "duration": "32i"
    },
    {
      "time": "21312i",
      "midiNote": 65,
      "noteName": "F4",
      "velocity": 0.5039370078740157,
      "duration": "32i"
    },
    {
      "time": "21504i",
      "midiNote": 67,
      "noteName": "G4",
      "velocity": 0.5039370078740157,
      "duration": "32i"
    },
    {
      "time": "21552i",
      "midiNote": 74,
      "noteName": "D5",
      "velocity": 0.5039370078740157,
      "duration": "32i"
    },
    {
      "time": "21648i",
      "midiNote": 74,
      "noteName": "D5",
      "velocity": 0.5039370078740157,
      "duration": "32i"
    },
    {
      "time": "21696i",
      "midiNote": 74,
      "noteName": "D5",
      "velocity": 0.5039370078740157,
      "duration": "32i"
    },
    {
      "time": "21760i",
      "midiNote": 72,
      "noteName": "C5",
      "velocity": 0.5039370078740157,
      "duration": "32i"
    },
    {
      "time": "21824i",
      "midiNote": 71,
      "noteName": "B4",
      "velocity": 0.5039370078740157,
      "duration": "32i"
    },
    {
      "time": "21888i",
      "midiNote": 67,
      "noteName": "G4",
      "velocity": 0.5039370078740157,
      "duration": "32i"
    },
    {
      "time": "21936i",
      "midiNote": 64,
      "noteName": "E4",
      "velocity": 0.5039370078740157,
      "duration": "32i"
    },
    {
      "time": "22032i",
      "midiNote": 64,
      "noteName": "E4",
      "velocity": 0.5039370078740157,
      "duration": "32i"
    },
    {
      "time": "22080i",
      "midiNote": 60,
      "noteName": "C4",
      "velocity": 0.5039370078740157,
      "duration": "32i"
    },
    {
      "time": "22272i",
      "midiNote": 68,
      "noteName": "G#4",
      "velocity": 0.5039370078740157,
      "duration": "32i"
    },
    {
      "time": "22320i",
      "midiNote": 68,
      "noteName": "G#4",
      "velocity": 0.5039370078740157,
      "duration": "32i"
    },
    {
      "time": "22416i",
      "midiNote": 68,
      "noteName": "G#4",
      "velocity": 0.5039370078740157,
      "duration": "32i"
    },
    {
      "time": "22512i",
      "midiNote": 68,
      "noteName": "G#4",
      "velocity": 0.5039370078740157,
      "duration": "32i"
    },
    {
      "time": "22560i",
      "midiNote": 70,
      "noteName": "A#4",
      "velocity": 0.5039370078740157,
      "duration": "32i"
    },
    {
      "time": "22656i",
      "midiNote": 67,
      "noteName": "G4",
      "velocity": 0.5039370078740157,
      "duration": "32i"
    },
    {
      "time": "22704i",
      "midiNote": 64,
      "noteName": "E4",
      "velocity": 0.5039370078740157,
      "duration": "32i"
    },
    {
      "time": "22800i",
      "midiNote": 64,
      "noteName": "E4",
      "velocity": 0.5039370078740157,
      "duration": "32i"
    },
    {
      "time": "22848i",
      "midiNote": 60,
      "noteName": "C4",
      "velocity": 0.5039370078740157,
      "duration": "32i"
    },
    {
      "time": "23040i",
      "midiNote": 68,
      "noteName": "G#4",
      "velocity": 0.5039370078740157,
      "duration": "32i"
    },
    {
      "time": "23088i",
      "midiNote": 68,
      "noteName": "G#4",
      "velocity": 0.5039370078740157,
      "duration": "32i"
    },
    {
      "time": "23184i",
      "midiNote": 68,
      "noteName": "G#4",
      "velocity": 0.5039370078740157,
      "duration": "32i"
    },
    {
      "time": "23280i",
      "midiNote": 68,
      "noteName": "G#4",
      "velocity": 0.5039370078740157,
      "duration": "32i"
    },
    {
      "time": "23328i",
      "midiNote": 70,
      "noteName": "A#4",
      "velocity": 0.5039370078740157,
      "duration": "32i"
    },
    {
      "time": "23376i",
      "midiNote": 67,
      "noteName": "G4",
      "velocity": 0.5039370078740157,
      "duration": "32i"
    },
    {
      "time": "23808i",
      "midiNote": 68,
      "noteName": "G#4",
      "velocity": 0.5039370078740157,
      "duration": "32i"
    },
    {
      "time": "23856i",
      "midiNote": 68,
      "noteName": "G#4",
      "velocity": 0.5039370078740157,
      "duration": "32i"
    },
    {
      "time": "23952i",
      "midiNote": 68,
      "noteName": "G#4",
      "velocity": 0.5039370078740157,
      "duration": "32i"
    },
    {
      "time": "24048i",
      "midiNote": 68,
      "noteName": "G#4",
      "velocity": 0.5039370078740157,
      "duration": "32i"
    },
    {
      "time": "24096i",
      "midiNote": 70,
      "noteName": "A#4",
      "velocity": 0.5039370078740157,
      "duration": "32i"
    },
    {
      "time": "24192i",
      "midiNote": 67,
      "noteName": "G4",
      "velocity": 0.5039370078740157,
      "duration": "32i"
    },
    {
      "time": "24240i",
      "midiNote": 64,
      "noteName": "E4",
      "velocity": 0.5039370078740157,
      "duration": "32i"
    },
    {
      "time": "24336i",
      "midiNote": 64,
      "noteName": "E4",
      "velocity": 0.5039370078740157,
      "duration": "32i"
    },
    {
      "time": "24384i",
      "midiNote": 60,
      "noteName": "C4",
      "velocity": 0.5039370078740157,
      "duration": "32i"
    },
    {
      "time": "24576i",
      "midiNote": 66,
      "noteName": "F#4",
      "velocity": 0.5039370078740157,
      "duration": "32i"
    },
    {
      "time": "24624i",
      "midiNote": 66,
      "noteName": "F#4",
      "velocity": 0.5039370078740157,
      "duration": "32i"
    },
    {
      "time": "24720i",
      "midiNote": 66,
      "noteName": "F#4",
      "velocity": 0.5039370078740157,
      "duration": "32i"
    },
    {
      "time": "24816i",
      "midiNote": 66,
      "noteName": "F#4",
      "velocity": 0.5039370078740157,
      "duration": "32i"
    },
    {
      "time": "24864i",
      "midiNote": 66,
      "noteName": "F#4",
      "velocity": 0.5039370078740157,
      "duration": "32i"
    },
    {
      "time": "24960i",
      "midiNote": 71,
      "noteName": "B4",
      "velocity": 0.5039370078740157,
      "duration": "32i"
    },
    {
      "time": "25152i",
      "midiNote": 67,
      "noteName": "G4",
      "velocity": 0.5039370078740157,
      "duration": "32i"
    },
    {
      "time": "25344i",
      "midiNote": 72,
      "noteName": "C5",
      "velocity": 0.5039370078740157,
      "duration": "32i"
    },
    {
      "time": "25392i",
      "midiNote": 69,
      "noteName": "A4",
      "velocity": 0.5039370078740157,
      "duration": "32i"
    },
    {
      "time": "25488i",
      "midiNote": 64,
      "noteName": "E4",
      "velocity": 0.5039370078740157,
      "duration": "32i"
    },
    {
      "time": "25632i",
      "midiNote": 64,
      "noteName": "E4",
      "velocity": 0.5039370078740157,
      "duration": "32i"
    },
    {
      "time": "25728i",
      "midiNote": 65,
      "noteName": "F4",
      "velocity": 0.5039370078740157,
      "duration": "32i"
    },
    {
      "time": "25776i",
      "midiNote": 72,
      "noteName": "C5",
      "velocity": 0.5039370078740157,
      "duration": "32i"
    },
    {
      "time": "25872i",
      "midiNote": 72,
      "noteName": "C5",
      "velocity": 0.5039370078740157,
      "duration": "32i"
    },
    {
      "time": "25920i",
      "midiNote": 65,
      "noteName": "F4",
      "velocity": 0.5039370078740157,
      "duration": "32i"
    },
    {
      "time": "26112i",
      "midiNote": 67,
      "noteName": "G4",
      "velocity": 0.5039370078740157,
      "duration": "32i"
    },
    {
      "time": "26176i",
      "midiNote": 77,
      "noteName": "F5",
      "velocity": 0.5039370078740157,
      "duration": "32i"
    },
    {
      "time": "26240i",
      "midiNote": 77,
      "noteName": "F5",
      "velocity": 0.5039370078740157,
      "duration": "32i"
    },
    {
      "time": "26304i",
      "midiNote": 77,
      "noteName": "F5",
      "velocity": 0.5039370078740157,
      "duration": "32i"
    },
    {
      "time": "26368i",
      "midiNote": 76,
      "noteName": "E5",
      "velocity": 0.5039370078740157,
      "duration": "32i"
    },
    {
      "time": "26432i",
      "midiNote": 74,
      "noteName": "D5",
      "velocity": 0.5039370078740157,
      "duration": "32i"
    },
    {
      "time": "26496i",
      "midiNote": 72,
      "noteName": "C5",
      "velocity": 0.5039370078740157,
      "duration": "32i"
    },
    {
      "time": "26544i",
      "midiNote": 69,
      "noteName": "A4",
      "velocity": 0.5039370078740157,
      "duration": "32i"
    },
    {
      "time": "26640i",
      "midiNote": 65,
      "noteName": "F4",
      "velocity": 0.5039370078740157,
      "duration": "32i"
    },
    {
      "time": "26688i",
      "midiNote": 64,
      "noteName": "E4",
      "velocity": 0.5039370078740157,
      "duration": "32i"
    },
    {
      "time": "26880i",
      "midiNote": 72,
      "noteName": "C5",
      "velocity": 0.5039370078740157,
      "duration": "32i"
    },
    {
      "time": "26928i",
      "midiNote": 69,
      "noteName": "A4",
      "velocity": 0.5039370078740157,
      "duration": "32i"
    },
    {
      "time": "27024i",
      "midiNote": 64,
      "noteName": "E4",
      "velocity": 0.5039370078740157,
      "duration": "32i"
    },
    {
      "time": "27168i",
      "midiNote": 64,
      "noteName": "E4",
      "velocity": 0.5039370078740157,
      "duration": "32i"
    },
    {
      "time": "27264i",
      "midiNote": 65,
      "noteName": "F4",
      "velocity": 0.5039370078740157,
      "duration": "32i"
    },
    {
      "time": "27312i",
      "midiNote": 72,
      "noteName": "C5",
      "velocity": 0.5039370078740157,
      "duration": "32i"
    },
    {
      "time": "27408i",
      "midiNote": 72,
      "noteName": "C5",
      "velocity": 0.5039370078740157,
      "duration": "32i"
    },
    {
      "time": "27456i",
      "midiNote": 65,
      "noteName": "F4",
      "velocity": 0.5039370078740157,
      "duration": "32i"
    },
    {
      "time": "27648i",
      "midiNote": 67,
      "noteName": "G4",
      "velocity": 0.5039370078740157,
      "duration": "32i"
    },
    {
      "time": "27696i",
      "midiNote": 74,
      "noteName": "D5",
      "velocity": 0.5039370078740157,
      "duration": "32i"
    },
    {
      "time": "27792i",
      "midiNote": 74,
      "noteName": "D5",
      "velocity": 0.5039370078740157,
      "duration": "32i"
    },
    {
      "time": "27840i",
      "midiNote": 74,
      "noteName": "D5",
      "velocity": 0.5039370078740157,
      "duration": "32i"
    },
    {
      "time": "27904i",
      "midiNote": 72,
      "noteName": "C5",
      "velocity": 0.5039370078740157,
      "duration": "32i"
    },
    {
      "time": "27968i",
      "midiNote": 71,
      "noteName": "B4",
      "velocity": 0.5039370078740157,
      "duration": "32i"
    },
    {
      "time": "28032i",
      "midiNote": 67,
      "noteName": "G4",
      "velocity": 0.5039370078740157,
      "duration": "32i"
    },
    {
      "time": "28080i",
      "midiNote": 64,
      "noteName": "E4",
      "velocity": 0.5039370078740157,
      "duration": "32i"
    },
    {
      "time": "28176i",
      "midiNote": 64,
      "noteName": "E4",
      "velocity": 0.5039370078740157,
      "duration": "32i"
    },
    {
      "time": "28224i",
      "midiNote": 60,
      "noteName": "C4",
      "velocity": 0.5039370078740157,
      "duration": "32i"
    }
  ],
  [
    {
      "time": "0i",
      "midiNote": 50,
      "noteName": "D3",
      "velocity": 0.5039370078740157,
      "duration": "32i"
    },
    {
      "time": "48i",
      "midiNote": 50,
      "noteName": "D3",
      "velocity": 0.5039370078740157,
      "duration": "32i"
    },
    {
      "time": "144i",
      "midiNote": 50,
      "noteName": "D3",
      "velocity": 0.5039370078740157,
      "duration": "32i"
    },
    {
      "time": "240i",
      "midiNote": 50,
      "noteName": "D3",
      "velocity": 0.5039370078740157,
      "duration": "32i"
    },
    {
      "time": "288i",
      "midiNote": 50,
      "noteName": "D3",
      "velocity": 0.5039370078740157,
      "duration": "32i"
    },
    {
      "time": "384i",
      "midiNote": 67,
      "noteName": "G4",
      "velocity": 0.5039370078740157,
      "duration": "32i"
    },
    {
      "time": "576i",
      "midiNote": 55,
      "noteName": "G3",
      "velocity": 0.5039370078740157,
      "duration": "32i"
    },
    {
      "time": "768i",
      "midiNote": 55,
      "noteName": "G3",
      "velocity": 0.5039370078740157,
      "duration": "32i"
    },
    {
      "time": "912i",
      "midiNote": 52,
      "noteName": "E3",
      "velocity": 0.5039370078740157,
      "duration": "32i"
    },
    {
      "time": "1056i",
      "midiNote": 48,
      "noteName": "C3",
      "velocity": 0.5039370078740157,
      "duration": "32i"
    },
    {
      "time": "1200i",
      "midiNote": 53,
      "noteName": "F3",
      "velocity": 0.5039370078740157,
      "duration": "32i"
    },
    {
      "time": "1296i",
      "midiNote": 55,
      "noteName": "G3",
      "velocity": 0.5039370078740157,
      "duration": "32i"
    },
    {
      "time": "1392i",
      "midiNote": 54,
      "noteName": "F#3",
      "velocity": 0.5039370078740157,
      "duration": "32i"
    },
    {
      "time": "1440i",
      "midiNote": 53,
      "noteName": "F3",
      "velocity": 0.5039370078740157,
      "duration": "32i"
    },
    {
      "time": "1536i",
      "midiNote": 52,
      "noteName": "E3",
      "velocity": 0.5039370078740157,
      "duration": "32i"
    },
    {
      "time": "1600i",
      "midiNote": 60,
      "noteName": "C4",
      "velocity": 0.5039370078740157,
      "duration": "32i"
    },
    {
      "time": "1664i",
      "midiNote": 64,
      "noteName": "E4",
      "velocity": 0.5039370078740157,
      "duration": "32i"
    },
    {
      "time": "1728i",
      "midiNote": 65,
      "noteName": "F4",
      "velocity": 0.5039370078740157,
      "duration": "32i"
    },
    {
      "time": "1824i",
      "midiNote": 62,
      "noteName": "D4",
      "velocity": 0.5039370078740157,
      "duration": "32i"
    },
    {
      "time": "1872i",
      "midiNote": 64,
      "noteName": "E4",
      "velocity": 0.5039370078740157,
      "duration": "32i"
    },
    {
      "time": "1968i",
      "midiNote": 60,
      "noteName": "C4",
      "velocity": 0.5039370078740157,
      "duration": "32i"
    },
    {
      "time": "2064i",
      "midiNote": 57,
      "noteName": "A3",
      "velocity": 0.5039370078740157,
      "duration": "32i"
    },
    {
      "time": "2112i",
      "midiNote": 59,
      "noteName": "B3",
      "velocity": 0.5039370078740157,
      "duration": "32i"
    },
    {
      "time": "2160i",
      "midiNote": 55,
      "noteName": "G3",
      "velocity": 0.5039370078740157,
      "duration": "32i"
    },
    {
      "time": "2304i",
      "midiNote": 55,
      "noteName": "G3",
      "velocity": 0.5039370078740157,
      "duration": "32i"
    },
    {
      "time": "2448i",
      "midiNote": 52,
      "noteName": "E3",
      "velocity": 0.5039370078740157,
      "duration": "32i"
    },
    {
      "time": "2592i",
      "midiNote": 48,
      "noteName": "C3",
      "velocity": 0.5039370078740157,
      "duration": "32i"
    },
    {
      "time": "2736i",
      "midiNote": 53,
      "noteName": "F3",
      "velocity": 0.5039370078740157,
      "duration": "32i"
    },
    {
      "time": "2832i",
      "midiNote": 55,
      "noteName": "G3",
      "velocity": 0.5039370078740157,
      "duration": "32i"
    },
    {
      "time": "2928i",
      "midiNote": 54,
      "noteName": "F#3",
      "velocity": 0.5039370078740157,
      "duration": "32i"
    },
    {
      "time": "2976i",
      "midiNote": 53,
      "noteName": "F3",
      "velocity": 0.5039370078740157,
      "duration": "32i"
    },
    {
      "time": "3072i",
      "midiNote": 52,
      "noteName": "E3",
      "velocity": 0.5039370078740157,
      "duration": "32i"
    },
    {
      "time": "3136i",
      "midiNote": 60,
      "noteName": "C4",
      "velocity": 0.5039370078740157,
      "duration": "32i"
    },
    {
      "time": "3200i",
      "midiNote": 64,
      "noteName": "E4",
      "velocity": 0.5039370078740157,
      "duration": "32i"
    },
    {
      "time": "3264i",
      "midiNote": 65,
      "noteName": "F4",
      "velocity": 0.5039370078740157,
      "duration": "32i"
    },
    {
      "time": "3360i",
      "midiNote": 62,
      "noteName": "D4",
      "velocity": 0.5039370078740157,
      "duration": "32i"
    },
    {
      "time": "3408i",
      "midiNote": 64,
      "noteName": "E4",
      "velocity": 0.5039370078740157,
      "duration": "32i"
    },
    {
      "time": "3504i",
      "midiNote": 60,
      "noteName": "C4",
      "velocity": 0.5039370078740157,
      "duration": "32i"
    },
    {
      "time": "3600i",
      "midiNote": 57,
      "noteName": "A3",
      "velocity": 0.5039370078740157,
      "duration": "32i"
    },
    {
      "time": "3648i",
      "midiNote": 59,
      "noteName": "B3",
      "velocity": 0.5039370078740157,
      "duration": "32i"
    },
    {
      "time": "3696i",
      "midiNote": 55,
      "noteName": "G3",
      "velocity": 0.5039370078740157,
      "duration": "32i"
    },
    {
      "time": "3840i",
      "midiNote": 48,
      "noteName": "C3",
      "velocity": 0.5039370078740157,
      "duration": "32i"
    },
    {
      "time": "3984i",
      "midiNote": 55,
      "noteName": "G3",
      "velocity": 0.5039370078740157,
      "duration": "32i"
    },
    {
      "time": "4128i",
      "midiNote": 60,
      "noteName": "C4",
      "velocity": 0.5039370078740157,
      "duration": "32i"
    },
    {
      "time": "4224i",
      "midiNote": 53,
      "noteName": "F3",
      "velocity": 0.5039370078740157,
      "duration": "32i"
    },
    {
      "time": "4368i",
      "midiNote": 60,
      "noteName": "C4",
      "velocity": 0.5039370078740157,
      "duration": "32i"
    },
    {
      "time": "4416i",
      "midiNote": 60,
      "noteName": "C4",
      "velocity": 0.5039370078740157,
      "duration": "32i"
    },
    {
      "time": "4512i",
      "midiNote": 53,
      "noteName": "F3",
      "velocity": 0.5039370078740157,
      "duration": "32i"
    },
    {
      "time": "4608i",
      "midiNote": 48,
      "noteName": "C3",
      "velocity": 0.5039370078740157,
      "duration": "32i"
    },
    {
      "time": "4752i",
      "midiNote": 52,
      "noteName": "E3",
      "velocity": 0.5039370078740157,
      "duration": "32i"
    },
    {
      "time": "4896i",
      "midiNote": 55,
      "noteName": "G3",
      "velocity": 0.5039370078740157,
      "duration": "32i"
    },
    {
      "time": "4944i",
      "midiNote": 60,
      "noteName": "C4",
      "velocity": 0.5039370078740157,
      "duration": "32i"
    },
    {
      "time": "5040i",
      "midiNote": 79,
      "noteName": "G5",
      "velocity": 0.5039370078740157,
      "duration": "32i"
    },
    {
      "time": "5136i",
      "midiNote": 79,
      "noteName": "G5",
      "velocity": 0.5039370078740157,
      "duration": "32i"
    },
    {
      "time": "5184i",
      "midiNote": 79,
      "noteName": "G5",
      "velocity": 0.5039370078740157,
      "duration": "32i"
    },
    {
      "time": "5280i",
      "midiNote": 55,
      "noteName": "G3",
      "velocity": 0.5039370078740157,
      "duration": "32i"
    },
    {
      "time": "5376i",
      "midiNote": 48,
      "noteName": "C3",
      "velocity": 0.5039370078740157,
      "duration": "32i"
    },
    {
      "time": "5520i",
      "midiNote": 55,
      "noteName": "G3",
      "velocity": 0.5039370078740157,
      "duration": "32i"
    },
    {
      "time": "5664i",
      "midiNote": 60,
      "noteName": "C4",
      "velocity": 0.5039370078740157,
      "duration": "32i"
    },
    {
      "time": "5760i",
      "midiNote": 53,
      "noteName": "F3",
      "velocity": 0.5039370078740157,
      "duration": "32i"
    },
    {
      "time": "5904i",
      "midiNote": 60,
      "noteName": "C4",
      "velocity": 0.5039370078740157,
      "duration": "32i"
    },
    {
      "time": "5952i",
      "midiNote": 60,
      "noteName": "C4",
      "velocity": 0.5039370078740157,
      "duration": "32i"
    },
    {
      "time": "6048i",
      "midiNote": 53,
      "noteName": "F3",
      "velocity": 0.5039370078740157,
      "duration": "32i"
    },
    {
      "time": "6144i",
      "midiNote": 48,
      "noteName": "C3",
      "velocity": 0.5039370078740157,
      "duration": "32i"
    },
    {
      "time": "6240i",
      "midiNote": 56,
      "noteName": "G#3",
      "velocity": 0.5039370078740157,
      "duration": "32i"
    },
    {
      "time": "6384i",
      "midiNote": 58,
      "noteName": "A#3",
      "velocity": 0.5039370078740157,
      "duration": "32i"
    },
    {
      "time": "6528i",
      "midiNote": 60,
      "noteName": "C4",
      "velocity": 0.5039370078740157,
      "duration": "32i"
    },
    {
      "time": "6672i",
      "midiNote": 55,
      "noteName": "G3",
      "velocity": 0.5039370078740157,
      "duration": "32i"
    },
    {
      "time": "6720i",
      "midiNote": 55,
      "noteName": "G3",
      "velocity": 0.5039370078740157,
      "duration": "32i"
    },
    {
      "time": "6816i",
      "midiNote": 48,
      "noteName": "C3",
      "velocity": 0.5039370078740157,
      "duration": "32i"
    },
    {
      "time": "6912i",
      "midiNote": 48,
      "noteName": "C3",
      "velocity": 0.5039370078740157,
      "duration": "32i"
    },
    {
      "time": "7056i",
      "midiNote": 55,
      "noteName": "G3",
      "velocity": 0.5039370078740157,
      "duration": "32i"
    },
    {
      "time": "7200i",
      "midiNote": 60,
      "noteName": "C4",
      "velocity": 0.5039370078740157,
      "duration": "32i"
    },
    {
      "time": "7296i",
      "midiNote": 53,
      "noteName": "F3",
      "velocity": 0.5039370078740157,
      "duration": "32i"
    },
    {
      "time": "7440i",
      "midiNote": 60,
      "noteName": "C4",
      "velocity": 0.5039370078740157,
      "duration": "32i"
    },
    {
      "time": "7488i",
      "midiNote": 60,
      "noteName": "C4",
      "velocity": 0.5039370078740157,
      "duration": "32i"
    },
    {
      "time": "7584i",
      "midiNote": 53,
      "noteName": "F3",
      "velocity": 0.5039370078740157,
      "duration": "32i"
    },
    {
      "time": "7680i",
      "midiNote": 48,
      "noteName": "C3",
      "velocity": 0.5039370078740157,
      "duration": "32i"
    },
    {
      "time": "7824i",
      "midiNote": 52,
      "noteName": "E3",
      "velocity": 0.5039370078740157,
      "duration": "32i"
    },
    {
      "time": "7968i",
      "midiNote": 55,
      "noteName": "G3",
      "velocity": 0.5039370078740157,
      "duration": "32i"
    },
    {
      "time": "8016i",
      "midiNote": 60,
      "noteName": "C4",
      "velocity": 0.5039370078740157,
      "duration": "32i"
    },
    {
      "time": "8112i",
      "midiNote": 79,
      "noteName": "G5",
      "velocity": 0.5039370078740157,
      "duration": "32i"
    },
    {
      "time": "8208i",
      "midiNote": 79,
      "noteName": "G5",
      "velocity": 0.5039370078740157,
      "duration": "32i"
    },
    {
      "time": "8256i",
      "midiNote": 79,
      "noteName": "G5",
      "velocity": 0.5039370078740157,
      "duration": "32i"
    },
    {
      "time": "8352i",
      "midiNote": 55,
      "noteName": "G3",
      "velocity": 0.5039370078740157,
      "duration": "32i"
    },
    {
      "time": "8448i",
      "midiNote": 48,
      "noteName": "C3",
      "velocity": 0.5039370078740157,
      "duration": "32i"
    },
    {
      "time": "8592i",
      "midiNote": 55,
      "noteName": "G3",
      "velocity": 0.5039370078740157,
      "duration": "32i"
    },
    {
      "time": "8736i",
      "midiNote": 60,
      "noteName": "C4",
      "velocity": 0.5039370078740157,
      "duration": "32i"
    },
    {
      "time": "8832i",
      "midiNote": 53,
      "noteName": "F3",
      "velocity": 0.5039370078740157,
      "duration": "32i"
    },
    {
      "time": "8976i",
      "midiNote": 60,
      "noteName": "C4",
      "velocity": 0.5039370078740157,
      "duration": "32i"
    },
    {
      "time": "9024i",
      "midiNote": 60,
      "noteName": "C4",
      "velocity": 0.5039370078740157,
      "duration": "32i"
    },
    {
      "time": "9120i",
      "midiNote": 53,
      "noteName": "F3",
      "velocity": 0.5039370078740157,
      "duration": "32i"
    },
    {
      "time": "9216i",
      "midiNote": 48,
      "noteName": "C3",
      "velocity": 0.5039370078740157,
      "duration": "32i"
    },
    {
      "time": "9312i",
      "midiNote": 56,
      "noteName": "G#3",
      "velocity": 0.5039370078740157,
      "duration": "32i"
    },
    {
      "time": "9456i",
      "midiNote": 58,
      "noteName": "A#3",
      "velocity": 0.5039370078740157,
      "duration": "32i"
    },
    {
      "time": "9600i",
      "midiNote": 60,
      "noteName": "C4",
      "velocity": 0.5039370078740157,
      "duration": "32i"
    },
    {
      "time": "9744i",
      "midiNote": 55,
      "noteName": "G3",
      "velocity": 0.5039370078740157,
      "duration": "32i"
    },
    {
      "time": "9792i",
      "midiNote": 55,
      "noteName": "G3",
      "velocity": 0.5039370078740157,
      "duration": "32i"
    },
    {
      "time": "9888i",
      "midiNote": 48,
      "noteName": "C3",
      "velocity": 0.5039370078740157,
      "duration": "32i"
    },
    {
      "time": "9984i",
      "midiNote": 44,
      "noteName": "G#2",
      "velocity": 0.5039370078740157,
      "duration": "32i"
    },
    {
      "time": "10128i",
      "midiNote": 51,
      "noteName": "D#3",
      "velocity": 0.5039370078740157,
      "duration": "32i"
    },
    {
      "time": "10272i",
      "midiNote": 56,
      "noteName": "G#3",
      "velocity": 0.5039370078740157,
      "duration": "32i"
    },
    {
      "time": "10368i",
      "midiNote": 55,
      "noteName": "G3",
      "velocity": 0.5039370078740157,
      "duration": "32i"
    },
    {
      "time": "10512i",
      "midiNote": 48,
      "noteName": "C3",
      "velocity": 0.5039370078740157,
      "duration": "32i"
    },
    {
      "time": "10656i",
      "midiNote": 43,
      "noteName": "G2",
      "velocity": 0.5039370078740157,
      "duration": "32i"
    },
    {
      "time": "10752i",
      "midiNote": 44,
      "noteName": "G#2",
      "velocity": 0.5039370078740157,
      "duration": "32i"
    },
    {
      "time": "10896i",
      "midiNote": 51,
      "noteName": "D#3",
      "velocity": 0.5039370078740157,
      "duration": "32i"
    },
    {
      "time": "11040i",
      "midiNote": 56,
      "noteName": "G#3",
      "velocity": 0.5039370078740157,
      "duration": "32i"
    },
    {
      "time": "11136i",
      "midiNote": 55,
      "noteName": "G3",
      "velocity": 0.5039370078740157,
      "duration": "32i"
    },
    {
      "time": "11280i",
      "midiNote": 48,
      "noteName": "C3",
      "velocity": 0.5039370078740157,
      "duration": "32i"
    },
    {
      "time": "11424i",
      "midiNote": 43,
      "noteName": "G2",
      "velocity": 0.5039370078740157,
      "duration": "32i"
    },
    {
      "time": "11520i",
      "midiNote": 44,
      "noteName": "G#2",
      "velocity": 0.5039370078740157,
      "duration": "32i"
    },
    {
      "time": "11664i",
      "midiNote": 51,
      "noteName": "D#3",
      "velocity": 0.5039370078740157,
      "duration": "32i"
    },
    {
      "time": "11808i",
      "midiNote": 56,
      "noteName": "G#3",
      "velocity": 0.5039370078740157,
      "duration": "32i"
    },
    {
      "time": "11904i",
      "midiNote": 55,
      "noteName": "G3",
      "velocity": 0.5039370078740157,
      "duration": "32i"
    },
    {
      "time": "12048i",
      "midiNote": 48,
      "noteName": "C3",
      "velocity": 0.5039370078740157,
      "duration": "32i"
    },
    {
      "time": "12192i",
      "midiNote": 43,
      "noteName": "G2",
      "velocity": 0.5039370078740157,
      "duration": "32i"
    },
    {
      "time": "12288i",
      "midiNote": 50,
      "noteName": "D3",
      "velocity": 0.5039370078740157,
      "duration": "32i"
    },
    {
      "time": "12336i",
      "midiNote": 50,
      "noteName": "D3",
      "velocity": 0.5039370078740157,
      "duration": "32i"
    },
    {
      "time": "12432i",
      "midiNote": 50,
      "noteName": "D3",
      "velocity": 0.5039370078740157,
      "duration": "32i"
    },
    {
      "time": "12528i",
      "midiNote": 50,
      "noteName": "D3",
      "velocity": 0.5039370078740157,
      "duration": "32i"
    },
    {
      "time": "12576i",
      "midiNote": 50,
      "noteName": "D3",
      "velocity": 0.5039370078740157,
      "duration": "32i"
    },
    {
      "time": "12672i",
      "midiNote": 67,
      "noteName": "G4",
      "velocity": 0.5039370078740157,
      "duration": "32i"
    },
    {
      "time": "12864i",
      "midiNote": 55,
      "noteName": "G3",
      "velocity": 0.5039370078740157,
      "duration": "32i"
    },
    {
      "time": "13056i",
      "midiNote": 55,
      "noteName": "G3",
      "velocity": 0.5039370078740157,
      "duration": "32i"
    },
    {
      "time": "13200i",
      "midiNote": 52,
      "noteName": "E3",
      "velocity": 0.5039370078740157,
      "duration": "32i"
    },
    {
      "time": "13344i",
      "midiNote": 48,
      "noteName": "C3",
      "velocity": 0.5039370078740157,
      "duration": "32i"
    },
    {
      "time": "13488i",
      "midiNote": 53,
      "noteName": "F3",
      "velocity": 0.5039370078740157,
      "duration": "32i"
    },
    {
      "time": "13584i",
      "midiNote": 55,
      "noteName": "G3",
      "velocity": 0.5039370078740157,
      "duration": "32i"
    },
    {
      "time": "13680i",
      "midiNote": 54,
      "noteName": "F#3",
      "velocity": 0.5039370078740157,
      "duration": "32i"
    },
    {
      "time": "13728i",
      "midiNote": 53,
      "noteName": "F3",
      "velocity": 0.5039370078740157,
      "duration": "32i"
    },
    {
      "time": "13824i",
      "midiNote": 52,
      "noteName": "E3",
      "velocity": 0.5039370078740157,
      "duration": "32i"
    },
    {
      "time": "13888i",
      "midiNote": 60,
      "noteName": "C4",
      "velocity": 0.5039370078740157,
      "duration": "32i"
    },
    {
      "time": "13952i",
      "midiNote": 64,
      "noteName": "E4",
      "velocity": 0.5039370078740157,
      "duration": "32i"
    },
    {
      "time": "14016i",
      "midiNote": 65,
      "noteName": "F4",
      "velocity": 0.5039370078740157,
      "duration": "32i"
    },
    {
      "time": "14112i",
      "midiNote": 62,
      "noteName": "D4",
      "velocity": 0.5039370078740157,
      "duration": "32i"
    },
    {
      "time": "14160i",
      "midiNote": 64,
      "noteName": "E4",
      "velocity": 0.5039370078740157,
      "duration": "32i"
    },
    {
      "time": "14256i",
      "midiNote": 60,
      "noteName": "C4",
      "velocity": 0.5039370078740157,
      "duration": "32i"
    },
    {
      "time": "14352i",
      "midiNote": 57,
      "noteName": "A3",
      "velocity": 0.5039370078740157,
      "duration": "32i"
    },
    {
      "time": "14400i",
      "midiNote": 59,
      "noteName": "B3",
      "velocity": 0.5039370078740157,
      "duration": "32i"
    },
    {
      "time": "14448i",
      "midiNote": 55,
      "noteName": "G3",
      "velocity": 0.5039370078740157,
      "duration": "32i"
    },
    {
      "time": "14592i",
      "midiNote": 55,
      "noteName": "G3",
      "velocity": 0.5039370078740157,
      "duration": "32i"
    },
    {
      "time": "14736i",
      "midiNote": 52,
      "noteName": "E3",
      "velocity": 0.5039370078740157,
      "duration": "32i"
    },
    {
      "time": "14880i",
      "midiNote": 48,
      "noteName": "C3",
      "velocity": 0.5039370078740157,
      "duration": "32i"
    },
    {
      "time": "15024i",
      "midiNote": 53,
      "noteName": "F3",
      "velocity": 0.5039370078740157,
      "duration": "32i"
    },
    {
      "time": "15120i",
      "midiNote": 55,
      "noteName": "G3",
      "velocity": 0.5039370078740157,
      "duration": "32i"
    },
    {
      "time": "15216i",
      "midiNote": 54,
      "noteName": "F#3",
      "velocity": 0.5039370078740157,
      "duration": "32i"
    },
    {
      "time": "15264i",
      "midiNote": 53,
      "noteName": "F3",
      "velocity": 0.5039370078740157,
      "duration": "32i"
    },
    {
      "time": "15360i",
      "midiNote": 52,
      "noteName": "E3",
      "velocity": 0.5039370078740157,
      "duration": "32i"
    },
    {
      "time": "15424i",
      "midiNote": 60,
      "noteName": "C4",
      "velocity": 0.5039370078740157,
      "duration": "32i"
    },
    {
      "time": "15488i",
      "midiNote": 64,
      "noteName": "E4",
      "velocity": 0.5039370078740157,
      "duration": "32i"
    },
    {
      "time": "15552i",
      "midiNote": 65,
      "noteName": "F4",
      "velocity": 0.5039370078740157,
      "duration": "32i"
    },
    {
      "time": "15648i",
      "midiNote": 62,
      "noteName": "D4",
      "velocity": 0.5039370078740157,
      "duration": "32i"
    },
    {
      "time": "15696i",
      "midiNote": 64,
      "noteName": "E4",
      "velocity": 0.5039370078740157,
      "duration": "32i"
    },
    {
      "time": "15792i",
      "midiNote": 60,
      "noteName": "C4",
      "velocity": 0.5039370078740157,
      "duration": "32i"
    },
    {
      "time": "15888i",
      "midiNote": 57,
      "noteName": "A3",
      "velocity": 0.5039370078740157,
      "duration": "32i"
    },
    {
      "time": "15936i",
      "midiNote": 59,
      "noteName": "B3",
      "velocity": 0.5039370078740157,
      "duration": "32i"
    },
    {
      "time": "15984i",
      "midiNote": 55,
      "noteName": "G3",
      "velocity": 0.5039370078740157,
      "duration": "32i"
    },
    {
      "time": "16128i",
      "midiNote": 48,
      "noteName": "C3",
      "velocity": 0.5039370078740157,
      "duration": "32i"
    },
    {
      "time": "16272i",
      "midiNote": 54,
      "noteName": "F#3",
      "velocity": 0.5039370078740157,
      "duration": "32i"
    },
    {
      "time": "16320i",
      "midiNote": 55,
      "noteName": "G3",
      "velocity": 0.5039370078740157,
      "duration": "32i"
    },
    {
      "time": "16416i",
      "midiNote": 60,
      "noteName": "C4",
      "velocity": 0.5039370078740157,
      "duration": "32i"
    },
    {
      "time": "16512i",
      "midiNote": 53,
      "noteName": "F3",
      "velocity": 0.5039370078740157,
      "duration": "32i"
    },
    {
      "time": "16608i",
      "midiNote": 53,
      "noteName": "F3",
      "velocity": 0.5039370078740157,
      "duration": "32i"
    },
    {
      "time": "16704i",
      "midiNote": 60,
      "noteName": "C4",
      "velocity": 0.5039370078740157,
      "duration": "32i"
    },
    {
      "time": "16752i",
      "midiNote": 60,
      "noteName": "C4",
      "velocity": 0.5039370078740157,
      "duration": "32i"
    },
    {
      "time": "16800i",
      "midiNote": 53,
      "noteName": "F3",
      "velocity": 0.5039370078740157,
      "duration": "32i"
    },
    {
      "time": "16896i",
      "midiNote": 50,
      "noteName": "D3",
      "velocity": 0.5039370078740157,
      "duration": "32i"
    },
    {
      "time": "17040i",
      "midiNote": 53,
      "noteName": "F3",
      "velocity": 0.5039370078740157,
      "duration": "32i"
    },
    {
      "time": "17088i",
      "midiNote": 55,
      "noteName": "G3",
      "velocity": 0.5039370078740157,
      "duration": "32i"
    },
    {
      "time": "17184i",
      "midiNote": 59,
      "noteName": "B3",
      "velocity": 0.5039370078740157,
      "duration": "32i"
    },
    {
      "time": "17280i",
      "midiNote": 55,
      "noteName": "G3",
      "velocity": 0.5039370078740157,
      "duration": "32i"
    },
    {
      "time": "17376i",
      "midiNote": 55,
      "noteName": "G3",
      "velocity": 0.5039370078740157,
      "duration": "32i"
    },
    {
      "time": "17472i",
      "midiNote": 60,
      "noteName": "C4",
      "velocity": 0.5039370078740157,
      "duration": "32i"
    },
    {
      "time": "17520i",
      "midiNote": 60,
      "noteName": "C4",
      "velocity": 0.5039370078740157,
      "duration": "32i"
    },
    {
      "time": "17568i",
      "midiNote": 55,
      "noteName": "G3",
      "velocity": 0.5039370078740157,
      "duration": "32i"
    },
    {
      "time": "17664i",
      "midiNote": 48,
      "noteName": "C3",
      "velocity": 0.5039370078740157,
      "duration": "32i"
    },
    {
      "time": "17808i",
      "midiNote": 54,
      "noteName": "F#3",
      "velocity": 0.5039370078740157,
      "duration": "32i"
    },
    {
      "time": "17856i",
      "midiNote": 55,
      "noteName": "G3",
      "velocity": 0.5039370078740157,
      "duration": "32i"
    },
    {
      "time": "17952i",
      "midiNote": 60,
      "noteName": "C4",
      "velocity": 0.5039370078740157,
      "duration": "32i"
    },
    {
      "time": "18048i",
      "midiNote": 53,
      "noteName": "F3",
      "velocity": 0.5039370078740157,
      "duration": "32i"
    },
    {
      "time": "18144i",
      "midiNote": 53,
      "noteName": "F3",
      "velocity": 0.5039370078740157,
      "duration": "32i"
    },
    {
      "time": "18240i",
      "midiNote": 60,
      "noteName": "C4",
      "velocity": 0.5039370078740157,
      "duration": "32i"
    },
    {
      "time": "18288i",
      "midiNote": 60,
      "noteName": "C4",
      "velocity": 0.5039370078740157,
      "duration": "32i"
    },
    {
      "time": "18336i",
      "midiNote": 53,
      "noteName": "F3",
      "velocity": 0.5039370078740157,
      "duration": "32i"
    },
    {
      "time": "18432i",
      "midiNote": 55,
      "noteName": "G3",
      "velocity": 0.5039370078740157,
      "duration": "32i"
    },
    {
      "time": "18480i",
      "midiNote": 55,
      "noteName": "G3",
      "velocity": 0.5039370078740157,
      "duration": "32i"
    },
    {
      "time": "18576i",
      "midiNote": 55,
      "noteName": "G3",
      "velocity": 0.5039370078740157,
      "duration": "32i"
    },
    {
      "time": "18624i",
      "midiNote": 55,
      "noteName": "G3",
      "velocity": 0.5039370078740157,
      "duration": "32i"
    },
    {
      "time": "18688i",
      "midiNote": 57,
      "noteName": "A3",
      "velocity": 0.5039370078740157,
      "duration": "32i"
    },
    {
      "time": "18752i",
      "midiNote": 59,
      "noteName": "B3",
      "velocity": 0.5039370078740157,
      "duration": "32i"
    },
    {
      "time": "18816i",
      "midiNote": 60,
      "noteName": "C4",
      "velocity": 0.5039370078740157,
      "duration": "32i"
    },
    {
      "time": "18912i",
      "midiNote": 55,
      "noteName": "G3",
      "velocity": 0.5039370078740157,
      "duration": "32i"
    },
    {
      "time": "19008i",
      "midiNote": 48,
      "noteName": "C3",
      "velocity": 0.5039370078740157,
      "duration": "32i"
    },
    {
      "time": "19200i",
      "midiNote": 48,
      "noteName": "C3",
      "velocity": 0.5039370078740157,
      "duration": "32i"
    },
    {
      "time": "19344i",
      "midiNote": 54,
      "noteName": "F#3",
      "velocity": 0.5039370078740157,
      "duration": "32i"
    },
    {
      "time": "19392i",
      "midiNote": 55,
      "noteName": "G3",
      "velocity": 0.5039370078740157,
      "duration": "32i"
    },
    {
      "time": "19488i",
      "midiNote": 60,
      "noteName": "C4",
      "velocity": 0.5039370078740157,
      "duration": "32i"
    },
    {
      "time": "19584i",
      "midiNote": 53,
      "noteName": "F3",
      "velocity": 0.5039370078740157,
      "duration": "32i"
    },
    {
      "time": "19680i",
      "midiNote": 53,
      "noteName": "F3",
      "velocity": 0.5039370078740157,
      "duration": "32i"
    },
    {
      "time": "19776i",
      "midiNote": 60,
      "noteName": "C4",
      "velocity": 0.5039370078740157,
      "duration": "32i"
    },
    {
      "time": "19824i",
      "midiNote": 60,
      "noteName": "C4",
      "velocity": 0.5039370078740157,
      "duration": "32i"
    },
    {
      "time": "19872i",
      "midiNote": 53,
      "noteName": "F3",
      "velocity": 0.5039370078740157,
      "duration": "32i"
    },
    {
      "time": "19968i",
      "midiNote": 50,
      "noteName": "D3",
      "velocity": 0.5039370078740157,
      "duration": "32i"
    },
    {
      "time": "20112i",
      "midiNote": 53,
      "noteName": "F3",
      "velocity": 0.5039370078740157,
      "duration": "32i"
    },
    {
      "time": "20160i",
      "midiNote": 55,
      "noteName": "G3",
      "velocity": 0.5039370078740157,
      "duration": "32i"
    },
    {
      "time": "20256i",
      "midiNote": 59,
      "noteName": "B3",
      "velocity": 0.5039370078740157,
      "duration": "32i"
    },
    {
      "time": "20352i",
      "midiNote": 55,
      "noteName": "G3",
      "velocity": 0.5039370078740157,
      "duration": "32i"
    },
    {
      "time": "20448i",
      "midiNote": 55,
      "noteName": "G3",
      "velocity": 0.5039370078740157,
      "duration": "32i"
    },
    {
      "time": "20544i",
      "midiNote": 60,
      "noteName": "C4",
      "velocity": 0.5039370078740157,
      "duration": "32i"
    },
    {
      "time": "20592i",
      "midiNote": 60,
      "noteName": "C4",
      "velocity": 0.5039370078740157,
      "duration": "32i"
    },
    {
      "time": "20640i",
      "midiNote": 55,
      "noteName": "G3",
      "velocity": 0.5039370078740157,
      "duration": "32i"
    },
    {
      "time": "20736i",
      "midiNote": 48,
      "noteName": "C3",
      "velocity": 0.5039370078740157,
      "duration": "32i"
    },
    {
      "time": "20880i",
      "midiNote": 54,
      "noteName": "F#3",
      "velocity": 0.5039370078740157,
      "duration": "32i"
    },
    {
      "time": "20928i",
      "midiNote": 55,
      "noteName": "G3",
      "velocity": 0.5039370078740157,
      "duration": "32i"
    },
    {
      "time": "21024i",
      "midiNote": 60,
      "noteName": "C4",
      "velocity": 0.5039370078740157,
      "duration": "32i"
    },
    {
      "time": "21120i",
      "midiNote": 53,
      "noteName": "F3",
      "velocity": 0.5039370078740157,
      "duration": "32i"
    },
    {
      "time": "21216i",
      "midiNote": 53,
      "noteName": "F3",
      "velocity": 0.5039370078740157,
      "duration": "32i"
    },
    {
      "time": "21312i",
      "midiNote": 60,
      "noteName": "C4",
      "velocity": 0.5039370078740157,
      "duration": "32i"
    },
    {
      "time": "21360i",
      "midiNote": 60,
      "noteName": "C4",
      "velocity": 0.5039370078740157,
      "duration": "32i"
    },
    {
      "time": "21408i",
      "midiNote": 53,
      "noteName": "F3",
      "velocity": 0.5039370078740157,
      "duration": "32i"
    },
    {
      "time": "21504i",
      "midiNote": 55,
      "noteName": "G3",
      "velocity": 0.5039370078740157,
      "duration": "32i"
    },
    {
      "time": "21552i",
      "midiNote": 55,
      "noteName": "G3",
      "velocity": 0.5039370078740157,
      "duration": "32i"
    },
    {
      "time": "21648i",
      "midiNote": 55,
      "noteName": "G3",
      "velocity": 0.5039370078740157,
      "duration": "32i"
    },
    {
      "time": "21696i",
      "midiNote": 55,
      "noteName": "G3",
      "velocity": 0.5039370078740157,
      "duration": "32i"
    },
    {
      "time": "21760i",
      "midiNote": 57,
      "noteName": "A3",
      "velocity": 0.5039370078740157,
      "duration": "32i"
    },
    {
      "time": "21824i",
      "midiNote": 59,
      "noteName": "B3",
      "velocity": 0.5039370078740157,
      "duration": "32i"
    },
    {
      "time": "21888i",
      "midiNote": 60,
      "noteName": "C4",
      "velocity": 0.5039370078740157,
      "duration": "32i"
    },
    {
      "time": "21984i",
      "midiNote": 55,
      "noteName": "G3",
      "velocity": 0.5039370078740157,
      "duration": "32i"
    },
    {
      "time": "22080i",
      "midiNote": 48,
      "noteName": "C3",
      "velocity": 0.5039370078740157,
      "duration": "32i"
    },
    {
      "time": "22272i",
      "midiNote": 44,
      "noteName": "G#2",
      "velocity": 0.5039370078740157,
      "duration": "32i"
    },
    {
      "time": "22416i",
      "midiNote": 51,
      "noteName": "D#3",
      "velocity": 0.5039370078740157,
      "duration": "32i"
    },
    {
      "time": "22560i",
      "midiNote": 56,
      "noteName": "G#3",
      "velocity": 0.5039370078740157,
      "duration": "32i"
    },
    {
      "time": "22656i",
      "midiNote": 55,
      "noteName": "G3",
      "velocity": 0.5039370078740157,
      "duration": "32i"
    },
    {
      "time": "22800i",
      "midiNote": 48,
      "noteName": "C3",
      "velocity": 0.5039370078740157,
      "duration": "32i"
    },
    {
      "time": "22944i",
      "midiNote": 43,
      "noteName": "G2",
      "velocity": 0.5039370078740157,
      "duration": "32i"
    },
    {
      "time": "23040i",
      "midiNote": 44,
      "noteName": "G#2",
      "velocity": 0.5039370078740157,
      "duration": "32i"
    },
    {
      "time": "23184i",
      "midiNote": 51,
      "noteName": "D#3",
      "velocity": 0.5039370078740157,
      "duration": "32i"
    },
    {
      "time": "23328i",
      "midiNote": 56,
      "noteName": "G#3",
      "velocity": 0.5039370078740157,
      "duration": "32i"
    },
    {
      "time": "23424i",
      "midiNote": 55,
      "noteName": "G3",
      "velocity": 0.5039370078740157,
      "duration": "32i"
    },
    {
      "time": "23568i",
      "midiNote": 48,
      "noteName": "C3",
      "velocity": 0.5039370078740157,
      "duration": "32i"
    },
    {
      "time": "23712i",
      "midiNote": 43,
      "noteName": "G2",
      "velocity": 0.5039370078740157,
      "duration": "32i"
    },
    {
      "time": "23808i",
      "midiNote": 44,
      "noteName": "G#2",
      "velocity": 0.5039370078740157,
      "duration": "32i"
    },
    {
      "time": "23952i",
      "midiNote": 51,
      "noteName": "D#3",
      "velocity": 0.5039370078740157,
      "duration": "32i"
    },
    {
      "time": "24096i",
      "midiNote": 56,
      "noteName": "G#3",
      "velocity": 0.5039370078740157,
      "duration": "32i"
    },
    {
      "time": "24192i",
      "midiNote": 55,
      "noteName": "G3",
      "velocity": 0.5039370078740157,
      "duration": "32i"
    },
    {
      "time": "24336i",
      "midiNote": 48,
      "noteName": "C3",
      "velocity": 0.5039370078740157,
      "duration": "32i"
    },
    {
      "time": "24480i",
      "midiNote": 43,
      "noteName": "G2",
      "velocity": 0.5039370078740157,
      "duration": "32i"
    },
    {
      "time": "24576i",
      "midiNote": 50,
      "noteName": "D3",
      "velocity": 0.5039370078740157,
      "duration": "32i"
    },
    {
      "time": "24624i",
      "midiNote": 50,
      "noteName": "D3",
      "velocity": 0.5039370078740157,
      "duration": "32i"
    },
    {
      "time": "24720i",
      "midiNote": 50,
      "noteName": "D3",
      "velocity": 0.5039370078740157,
      "duration": "32i"
    },
    {
      "time": "24816i",
      "midiNote": 50,
      "noteName": "D3",
      "velocity": 0.5039370078740157,
      "duration": "32i"
    },
    {
      "time": "24864i",
      "midiNote": 50,
      "noteName": "D3",
      "velocity": 0.5039370078740157,
      "duration": "32i"
    },
    {
      "time": "24960i",
      "midiNote": 67,
      "noteName": "G4",
      "velocity": 0.5039370078740157,
      "duration": "32i"
    },
    {
      "time": "25152i",
      "midiNote": 55,
      "noteName": "G3",
      "velocity": 0.5039370078740157,
      "duration": "32i"
    },
    {
      "time": "25344i",
      "midiNote": 48,
      "noteName": "C3",
      "velocity": 0.5039370078740157,
      "duration": "32i"
    },
    {
      "time": "25488i",
      "midiNote": 54,
      "noteName": "F#3",
      "velocity": 0.5039370078740157,
      "duration": "32i"
    },
    {
      "time": "25536i",
      "midiNote": 55,
      "noteName": "G3",
      "velocity": 0.5039370078740157,
      "duration": "32i"
    },
    {
      "time": "25632i",
      "midiNote": 60,
      "noteName": "C4",
      "velocity": 0.5039370078740157,
      "duration": "32i"
    },
    {
      "time": "25728i",
      "midiNote": 53,
      "noteName": "F3",
      "velocity": 0.5039370078740157,
      "duration": "32i"
    },
    {
      "time": "25824i",
      "midiNote": 53,
      "noteName": "F3",
      "velocity": 0.5039370078740157,
      "duration": "32i"
    },
    {
      "time": "25920i",
      "midiNote": 60,
      "noteName": "C4",
      "velocity": 0.5039370078740157,
      "duration": "32i"
    },
    {
      "time": "25968i",
      "midiNote": 60,
      "noteName": "C4",
      "velocity": 0.5039370078740157,
      "duration": "32i"
    },
    {
      "time": "26016i",
      "midiNote": 53,
      "noteName": "F3",
      "velocity": 0.5039370078740157,
      "duration": "32i"
    },
    {
      "time": "26112i",
      "midiNote": 50,
      "noteName": "D3",
      "velocity": 0.5039370078740157,
      "duration": "32i"
    },
    {
      "time": "26256i",
      "midiNote": 53,
      "noteName": "F3",
      "velocity": 0.5039370078740157,
      "duration": "32i"
    },
    {
      "time": "26304i",
      "midiNote": 55,
      "noteName": "G3",
      "velocity": 0.5039370078740157,
      "duration": "32i"
    },
    {
      "time": "26400i",
      "midiNote": 59,
      "noteName": "B3",
      "velocity": 0.5039370078740157,
      "duration": "32i"
    },
    {
      "time": "26496i",
      "midiNote": 55,
      "noteName": "G3",
      "velocity": 0.5039370078740157,
      "duration": "32i"
    },
    {
      "time": "26592i",
      "midiNote": 55,
      "noteName": "G3",
      "velocity": 0.5039370078740157,
      "duration": "32i"
    },
    {
      "time": "26688i",
      "midiNote": 60,
      "noteName": "C4",
      "velocity": 0.5039370078740157,
      "duration": "32i"
    },
    {
      "time": "26736i",
      "midiNote": 60,
      "noteName": "C4",
      "velocity": 0.5039370078740157,
      "duration": "32i"
    },
    {
      "time": "26784i",
      "midiNote": 55,
      "noteName": "G3",
      "velocity": 0.5039370078740157,
      "duration": "32i"
    },
    {
      "time": "26880i",
      "midiNote": 48,
      "noteName": "C3",
      "velocity": 0.5039370078740157,
      "duration": "32i"
    },
    {
      "time": "27024i",
      "midiNote": 54,
      "noteName": "F#3",
      "velocity": 0.5039370078740157,
      "duration": "32i"
    },
    {
      "time": "27072i",
      "midiNote": 55,
      "noteName": "G3",
      "velocity": 0.5039370078740157,
      "duration": "32i"
    },
    {
      "time": "27168i",
      "midiNote": 60,
      "noteName": "C4",
      "velocity": 0.5039370078740157,
      "duration": "32i"
    },
    {
      "time": "27264i",
      "midiNote": 53,
      "noteName": "F3",
      "velocity": 0.5039370078740157,
      "duration": "32i"
    },
    {
      "time": "27360i",
      "midiNote": 53,
      "noteName": "F3",
      "velocity": 0.5039370078740157,
      "duration": "32i"
    },
    {
      "time": "27456i",
      "midiNote": 60,
      "noteName": "C4",
      "velocity": 0.5039370078740157,
      "duration": "32i"
    },
    {
      "time": "27504i",
      "midiNote": 60,
      "noteName": "C4",
      "velocity": 0.5039370078740157,
      "duration": "32i"
    },
    {
      "time": "27552i",
      "midiNote": 53,
      "noteName": "F3",
      "velocity": 0.5039370078740157,
      "duration": "32i"
    },
    {
      "time": "27648i",
      "midiNote": 55,
      "noteName": "G3",
      "velocity": 0.5039370078740157,
      "duration": "32i"
    },
    {
      "time": "27696i",
      "midiNote": 55,
      "noteName": "G3",
      "velocity": 0.5039370078740157,
      "duration": "32i"
    },
    {
      "time": "27792i",
      "midiNote": 55,
      "noteName": "G3",
      "velocity": 0.5039370078740157,
      "duration": "32i"
    },
    {
      "time": "27840i",
      "midiNote": 55,
      "noteName": "G3",
      "velocity": 0.5039370078740157,
      "duration": "32i"
    },
    {
      "time": "27904i",
      "midiNote": 57,
      "noteName": "A3",
      "velocity": 0.5039370078740157,
      "duration": "32i"
    },
    {
      "time": "27968i",
      "midiNote": 59,
      "noteName": "B3",
      "velocity": 0.5039370078740157,
      "duration": "32i"
    },
    {
      "time": "28032i",
      "midiNote": 60,
      "noteName": "C4",
      "velocity": 0.5039370078740157,
      "duration": "32i"
    },
    {
      "time": "28128i",
      "midiNote": 55,
      "noteName": "G3",
      "velocity": 0.5039370078740157,
      "duration": "32i"
    },
    {
      "time": "28224i",
      "midiNote": 48,
      "noteName": "C3",
      "velocity": 0.5039370078740157,
      "duration": "32i"
    }
  ]
]
